G04 #@! TF.GenerationSoftware,KiCad,Pcbnew,5.1.9-73d0e3b20d~88~ubuntu20.04.1*
G04 #@! TF.CreationDate,2021-06-09T12:04:27-03:00*
G04 #@! TF.ProjectId,adaptador_db15_usb,61646170-7461-4646-9f72-5f646231355f,rev?*
G04 #@! TF.SameCoordinates,Original*
G04 #@! TF.FileFunction,Soldermask,Bot*
G04 #@! TF.FilePolarity,Negative*
%FSLAX46Y46*%
G04 Gerber Fmt 4.6, Leading zero omitted, Abs format (unit mm)*
G04 Created by KiCad (PCBNEW 5.1.9-73d0e3b20d~88~ubuntu20.04.1) date 2021-06-09 12:04:27*
%MOMM*%
%LPD*%
G01*
G04 APERTURE LIST*
%ADD10O,1.702000X3.302000*%
%ADD11C,1.102000*%
%ADD12C,4.102000*%
%ADD13C,1.702000*%
%ADD14O,3.302000X1.702000*%
%ADD15C,0.100000*%
G04 APERTURE END LIST*
D10*
X154545000Y-62745000D03*
X166245000Y-62745000D03*
D11*
X158145000Y-62745000D03*
X162645000Y-62745000D03*
X158145000Y-62745000D03*
X162645000Y-62745000D03*
D10*
X154545000Y-62745000D03*
X166245000Y-62745000D03*
G36*
G01*
X159994000Y-66095001D02*
X159994000Y-63744999D01*
G75*
G02*
X160044999Y-63694000I50999J0D01*
G01*
X160745001Y-63694000D01*
G75*
G02*
X160796000Y-63744999I0J-50999D01*
G01*
X160796000Y-66095001D01*
G75*
G02*
X160745001Y-66146000I-50999J0D01*
G01*
X160044999Y-66146000D01*
G75*
G02*
X159994000Y-66095001I0J50999D01*
G01*
G37*
G36*
G01*
X158994000Y-66095001D02*
X158994000Y-63744999D01*
G75*
G02*
X159044999Y-63694000I50999J0D01*
G01*
X159745001Y-63694000D01*
G75*
G02*
X159796000Y-63744999I0J-50999D01*
G01*
X159796000Y-66095001D01*
G75*
G02*
X159745001Y-66146000I-50999J0D01*
G01*
X159044999Y-66146000D01*
G75*
G02*
X158994000Y-66095001I0J50999D01*
G01*
G37*
G36*
G01*
X157994000Y-66095001D02*
X157994000Y-63744999D01*
G75*
G02*
X158044999Y-63694000I50999J0D01*
G01*
X158745001Y-63694000D01*
G75*
G02*
X158796000Y-63744999I0J-50999D01*
G01*
X158796000Y-66095001D01*
G75*
G02*
X158745001Y-66146000I-50999J0D01*
G01*
X158044999Y-66146000D01*
G75*
G02*
X157994000Y-66095001I0J50999D01*
G01*
G37*
G36*
G01*
X156994000Y-66095001D02*
X156994000Y-63744999D01*
G75*
G02*
X157044999Y-63694000I50999J0D01*
G01*
X157745001Y-63694000D01*
G75*
G02*
X157796000Y-63744999I0J-50999D01*
G01*
X157796000Y-66095001D01*
G75*
G02*
X157745001Y-66146000I-50999J0D01*
G01*
X157044999Y-66146000D01*
G75*
G02*
X156994000Y-66095001I0J50999D01*
G01*
G37*
G36*
G01*
X155994000Y-66095001D02*
X155994000Y-63744999D01*
G75*
G02*
X156044999Y-63694000I50999J0D01*
G01*
X156745001Y-63694000D01*
G75*
G02*
X156796000Y-63744999I0J-50999D01*
G01*
X156796000Y-66095001D01*
G75*
G02*
X156745001Y-66146000I-50999J0D01*
G01*
X156044999Y-66146000D01*
G75*
G02*
X155994000Y-66095001I0J50999D01*
G01*
G37*
G36*
G01*
X160994000Y-66095001D02*
X160994000Y-63744999D01*
G75*
G02*
X161044999Y-63694000I50999J0D01*
G01*
X161745001Y-63694000D01*
G75*
G02*
X161796000Y-63744999I0J-50999D01*
G01*
X161796000Y-66095001D01*
G75*
G02*
X161745001Y-66146000I-50999J0D01*
G01*
X161044999Y-66146000D01*
G75*
G02*
X160994000Y-66095001I0J50999D01*
G01*
G37*
G36*
G01*
X161994000Y-66095001D02*
X161994000Y-63744999D01*
G75*
G02*
X162044999Y-63694000I50999J0D01*
G01*
X162745001Y-63694000D01*
G75*
G02*
X162796000Y-63744999I0J-50999D01*
G01*
X162796000Y-66095001D01*
G75*
G02*
X162745001Y-66146000I-50999J0D01*
G01*
X162044999Y-66146000D01*
G75*
G02*
X161994000Y-66095001I0J50999D01*
G01*
G37*
G36*
G01*
X162994000Y-66095001D02*
X162994000Y-63744999D01*
G75*
G02*
X163044999Y-63694000I50999J0D01*
G01*
X163745001Y-63694000D01*
G75*
G02*
X163796000Y-63744999I0J-50999D01*
G01*
X163796000Y-66095001D01*
G75*
G02*
X163745001Y-66146000I-50999J0D01*
G01*
X163044999Y-66146000D01*
G75*
G02*
X162994000Y-66095001I0J50999D01*
G01*
G37*
G36*
G01*
X163994000Y-66095001D02*
X163994000Y-63744999D01*
G75*
G02*
X164044999Y-63694000I50999J0D01*
G01*
X164745001Y-63694000D01*
G75*
G02*
X164796000Y-63744999I0J-50999D01*
G01*
X164796000Y-66095001D01*
G75*
G02*
X164745001Y-66146000I-50999J0D01*
G01*
X164044999Y-66146000D01*
G75*
G02*
X163994000Y-66095001I0J50999D01*
G01*
G37*
D12*
X147910000Y-80470000D03*
X147910000Y-89270000D03*
X172910000Y-80480000D03*
X172900000Y-89270000D03*
D13*
X155540000Y-76800000D03*
X156685000Y-79340000D03*
X157830000Y-81880000D03*
X160120000Y-81880000D03*
G36*
G01*
X163849000Y-77600000D02*
X163849000Y-76000000D01*
G75*
G02*
X163900000Y-75949000I51000J0D01*
G01*
X165500000Y-75949000D01*
G75*
G02*
X165551000Y-76000000I0J-51000D01*
G01*
X165551000Y-77600000D01*
G75*
G02*
X165500000Y-77651000I-51000J0D01*
G01*
X163900000Y-77651000D01*
G75*
G02*
X163849000Y-77600000I0J51000D01*
G01*
G37*
X164700000Y-81880000D03*
X163555000Y-79340000D03*
X161265000Y-79340000D03*
X157830000Y-76800000D03*
X155540000Y-81880000D03*
X165845000Y-79340000D03*
X158975000Y-79340000D03*
X160120000Y-76800000D03*
X162410000Y-81880000D03*
X162410000Y-76800000D03*
X155540000Y-89240000D03*
X157830000Y-89240000D03*
X160120000Y-89240000D03*
X162410000Y-89240000D03*
X164700000Y-89240000D03*
X156685000Y-86700000D03*
X158975000Y-86700000D03*
X161265000Y-86700000D03*
X163555000Y-86700000D03*
X165845000Y-86700000D03*
X155540000Y-84160000D03*
X157830000Y-84160000D03*
X160120000Y-84160000D03*
X162410000Y-84160000D03*
G36*
G01*
X163849000Y-84960000D02*
X163849000Y-83360000D01*
G75*
G02*
X163900000Y-83309000I51000J0D01*
G01*
X165500000Y-83309000D01*
G75*
G02*
X165551000Y-83360000I0J-51000D01*
G01*
X165551000Y-84960000D01*
G75*
G02*
X165500000Y-85011000I-51000J0D01*
G01*
X163900000Y-85011000D01*
G75*
G02*
X163849000Y-84960000I0J51000D01*
G01*
G37*
D11*
X188545000Y-120325000D03*
X188545000Y-115825000D03*
D14*
X188545000Y-123925000D03*
X188545000Y-112225000D03*
G36*
G01*
X185194999Y-121674000D02*
X187545001Y-121674000D01*
G75*
G02*
X187596000Y-121724999I0J-50999D01*
G01*
X187596000Y-122425001D01*
G75*
G02*
X187545001Y-122476000I-50999J0D01*
G01*
X185194999Y-122476000D01*
G75*
G02*
X185144000Y-122425001I0J50999D01*
G01*
X185144000Y-121724999D01*
G75*
G02*
X185194999Y-121674000I50999J0D01*
G01*
G37*
G36*
G01*
X185194999Y-120674000D02*
X187545001Y-120674000D01*
G75*
G02*
X187596000Y-120724999I0J-50999D01*
G01*
X187596000Y-121425001D01*
G75*
G02*
X187545001Y-121476000I-50999J0D01*
G01*
X185194999Y-121476000D01*
G75*
G02*
X185144000Y-121425001I0J50999D01*
G01*
X185144000Y-120724999D01*
G75*
G02*
X185194999Y-120674000I50999J0D01*
G01*
G37*
G36*
G01*
X185194999Y-119674000D02*
X187545001Y-119674000D01*
G75*
G02*
X187596000Y-119724999I0J-50999D01*
G01*
X187596000Y-120425001D01*
G75*
G02*
X187545001Y-120476000I-50999J0D01*
G01*
X185194999Y-120476000D01*
G75*
G02*
X185144000Y-120425001I0J50999D01*
G01*
X185144000Y-119724999D01*
G75*
G02*
X185194999Y-119674000I50999J0D01*
G01*
G37*
G36*
G01*
X185194999Y-118674000D02*
X187545001Y-118674000D01*
G75*
G02*
X187596000Y-118724999I0J-50999D01*
G01*
X187596000Y-119425001D01*
G75*
G02*
X187545001Y-119476000I-50999J0D01*
G01*
X185194999Y-119476000D01*
G75*
G02*
X185144000Y-119425001I0J50999D01*
G01*
X185144000Y-118724999D01*
G75*
G02*
X185194999Y-118674000I50999J0D01*
G01*
G37*
G36*
G01*
X185194999Y-113674000D02*
X187545001Y-113674000D01*
G75*
G02*
X187596000Y-113724999I0J-50999D01*
G01*
X187596000Y-114425001D01*
G75*
G02*
X187545001Y-114476000I-50999J0D01*
G01*
X185194999Y-114476000D01*
G75*
G02*
X185144000Y-114425001I0J50999D01*
G01*
X185144000Y-113724999D01*
G75*
G02*
X185194999Y-113674000I50999J0D01*
G01*
G37*
G36*
G01*
X185194999Y-114674000D02*
X187545001Y-114674000D01*
G75*
G02*
X187596000Y-114724999I0J-50999D01*
G01*
X187596000Y-115425001D01*
G75*
G02*
X187545001Y-115476000I-50999J0D01*
G01*
X185194999Y-115476000D01*
G75*
G02*
X185144000Y-115425001I0J50999D01*
G01*
X185144000Y-114724999D01*
G75*
G02*
X185194999Y-114674000I50999J0D01*
G01*
G37*
G36*
G01*
X185194999Y-115674000D02*
X187545001Y-115674000D01*
G75*
G02*
X187596000Y-115724999I0J-50999D01*
G01*
X187596000Y-116425001D01*
G75*
G02*
X187545001Y-116476000I-50999J0D01*
G01*
X185194999Y-116476000D01*
G75*
G02*
X185144000Y-116425001I0J50999D01*
G01*
X185144000Y-115724999D01*
G75*
G02*
X185194999Y-115674000I50999J0D01*
G01*
G37*
G36*
G01*
X185194999Y-116674000D02*
X187545001Y-116674000D01*
G75*
G02*
X187596000Y-116724999I0J-50999D01*
G01*
X187596000Y-117425001D01*
G75*
G02*
X187545001Y-117476000I-50999J0D01*
G01*
X185194999Y-117476000D01*
G75*
G02*
X185144000Y-117425001I0J50999D01*
G01*
X185144000Y-116724999D01*
G75*
G02*
X185194999Y-116674000I50999J0D01*
G01*
G37*
G36*
G01*
X185194999Y-117674000D02*
X187545001Y-117674000D01*
G75*
G02*
X187596000Y-117724999I0J-50999D01*
G01*
X187596000Y-118425001D01*
G75*
G02*
X187545001Y-118476000I-50999J0D01*
G01*
X185194999Y-118476000D01*
G75*
G02*
X185144000Y-118425001I0J50999D01*
G01*
X185144000Y-117724999D01*
G75*
G02*
X185194999Y-117674000I50999J0D01*
G01*
G37*
X188545000Y-123925000D03*
X188545000Y-112225000D03*
D11*
X188545000Y-120325000D03*
X188545000Y-115825000D03*
G36*
G01*
X166330000Y-121529000D02*
X167930000Y-121529000D01*
G75*
G02*
X167981000Y-121580000I0J-51000D01*
G01*
X167981000Y-123180000D01*
G75*
G02*
X167930000Y-123231000I-51000J0D01*
G01*
X166330000Y-123231000D01*
G75*
G02*
X166279000Y-123180000I0J51000D01*
G01*
X166279000Y-121580000D01*
G75*
G02*
X166330000Y-121529000I51000J0D01*
G01*
G37*
D13*
X167130000Y-120090000D03*
X167130000Y-117800000D03*
X167130000Y-115510000D03*
X167130000Y-113220000D03*
X164590000Y-123525000D03*
X164590000Y-121235000D03*
X164590000Y-118945000D03*
X164590000Y-116655000D03*
X164590000Y-114365000D03*
X162050000Y-122380000D03*
X162050000Y-120090000D03*
X162050000Y-117800000D03*
X162050000Y-115510000D03*
X162050000Y-113220000D03*
X174490000Y-120090000D03*
X169410000Y-120090000D03*
X174490000Y-117800000D03*
X171950000Y-116655000D03*
X171950000Y-123525000D03*
X169410000Y-113220000D03*
X174490000Y-115510000D03*
X171950000Y-118945000D03*
X171950000Y-121235000D03*
X169410000Y-122380000D03*
G36*
G01*
X173690000Y-121529000D02*
X175290000Y-121529000D01*
G75*
G02*
X175341000Y-121580000I0J-51000D01*
G01*
X175341000Y-123180000D01*
G75*
G02*
X175290000Y-123231000I-51000J0D01*
G01*
X173690000Y-123231000D01*
G75*
G02*
X173639000Y-123180000I0J51000D01*
G01*
X173639000Y-121580000D01*
G75*
G02*
X173690000Y-121529000I51000J0D01*
G01*
G37*
X169410000Y-117800000D03*
X169410000Y-115510000D03*
X171950000Y-114365000D03*
X174490000Y-113220000D03*
D12*
X162020000Y-130580000D03*
X170810000Y-130590000D03*
X162020000Y-105590000D03*
X170820000Y-105590000D03*
D10*
X188995000Y-62745000D03*
X200695000Y-62745000D03*
D11*
X192595000Y-62745000D03*
X197095000Y-62745000D03*
X192595000Y-62745000D03*
X197095000Y-62745000D03*
D10*
X188995000Y-62745000D03*
X200695000Y-62745000D03*
G36*
G01*
X194444000Y-66095001D02*
X194444000Y-63744999D01*
G75*
G02*
X194494999Y-63694000I50999J0D01*
G01*
X195195001Y-63694000D01*
G75*
G02*
X195246000Y-63744999I0J-50999D01*
G01*
X195246000Y-66095001D01*
G75*
G02*
X195195001Y-66146000I-50999J0D01*
G01*
X194494999Y-66146000D01*
G75*
G02*
X194444000Y-66095001I0J50999D01*
G01*
G37*
G36*
G01*
X193444000Y-66095001D02*
X193444000Y-63744999D01*
G75*
G02*
X193494999Y-63694000I50999J0D01*
G01*
X194195001Y-63694000D01*
G75*
G02*
X194246000Y-63744999I0J-50999D01*
G01*
X194246000Y-66095001D01*
G75*
G02*
X194195001Y-66146000I-50999J0D01*
G01*
X193494999Y-66146000D01*
G75*
G02*
X193444000Y-66095001I0J50999D01*
G01*
G37*
G36*
G01*
X192444000Y-66095001D02*
X192444000Y-63744999D01*
G75*
G02*
X192494999Y-63694000I50999J0D01*
G01*
X193195001Y-63694000D01*
G75*
G02*
X193246000Y-63744999I0J-50999D01*
G01*
X193246000Y-66095001D01*
G75*
G02*
X193195001Y-66146000I-50999J0D01*
G01*
X192494999Y-66146000D01*
G75*
G02*
X192444000Y-66095001I0J50999D01*
G01*
G37*
G36*
G01*
X191444000Y-66095001D02*
X191444000Y-63744999D01*
G75*
G02*
X191494999Y-63694000I50999J0D01*
G01*
X192195001Y-63694000D01*
G75*
G02*
X192246000Y-63744999I0J-50999D01*
G01*
X192246000Y-66095001D01*
G75*
G02*
X192195001Y-66146000I-50999J0D01*
G01*
X191494999Y-66146000D01*
G75*
G02*
X191444000Y-66095001I0J50999D01*
G01*
G37*
G36*
G01*
X190444000Y-66095001D02*
X190444000Y-63744999D01*
G75*
G02*
X190494999Y-63694000I50999J0D01*
G01*
X191195001Y-63694000D01*
G75*
G02*
X191246000Y-63744999I0J-50999D01*
G01*
X191246000Y-66095001D01*
G75*
G02*
X191195001Y-66146000I-50999J0D01*
G01*
X190494999Y-66146000D01*
G75*
G02*
X190444000Y-66095001I0J50999D01*
G01*
G37*
G36*
G01*
X195444000Y-66095001D02*
X195444000Y-63744999D01*
G75*
G02*
X195494999Y-63694000I50999J0D01*
G01*
X196195001Y-63694000D01*
G75*
G02*
X196246000Y-63744999I0J-50999D01*
G01*
X196246000Y-66095001D01*
G75*
G02*
X196195001Y-66146000I-50999J0D01*
G01*
X195494999Y-66146000D01*
G75*
G02*
X195444000Y-66095001I0J50999D01*
G01*
G37*
G36*
G01*
X196444000Y-66095001D02*
X196444000Y-63744999D01*
G75*
G02*
X196494999Y-63694000I50999J0D01*
G01*
X197195001Y-63694000D01*
G75*
G02*
X197246000Y-63744999I0J-50999D01*
G01*
X197246000Y-66095001D01*
G75*
G02*
X197195001Y-66146000I-50999J0D01*
G01*
X196494999Y-66146000D01*
G75*
G02*
X196444000Y-66095001I0J50999D01*
G01*
G37*
G36*
G01*
X197444000Y-66095001D02*
X197444000Y-63744999D01*
G75*
G02*
X197494999Y-63694000I50999J0D01*
G01*
X198195001Y-63694000D01*
G75*
G02*
X198246000Y-63744999I0J-50999D01*
G01*
X198246000Y-66095001D01*
G75*
G02*
X198195001Y-66146000I-50999J0D01*
G01*
X197494999Y-66146000D01*
G75*
G02*
X197444000Y-66095001I0J50999D01*
G01*
G37*
G36*
G01*
X198444000Y-66095001D02*
X198444000Y-63744999D01*
G75*
G02*
X198494999Y-63694000I50999J0D01*
G01*
X199195001Y-63694000D01*
G75*
G02*
X199246000Y-63744999I0J-50999D01*
G01*
X199246000Y-66095001D01*
G75*
G02*
X199195001Y-66146000I-50999J0D01*
G01*
X198494999Y-66146000D01*
G75*
G02*
X198444000Y-66095001I0J50999D01*
G01*
G37*
D12*
X182360000Y-80470000D03*
X182360000Y-89270000D03*
X207360000Y-80480000D03*
X207350000Y-89270000D03*
D13*
X189990000Y-76800000D03*
X191135000Y-79340000D03*
X192280000Y-81880000D03*
X194570000Y-81880000D03*
G36*
G01*
X198299000Y-77600000D02*
X198299000Y-76000000D01*
G75*
G02*
X198350000Y-75949000I51000J0D01*
G01*
X199950000Y-75949000D01*
G75*
G02*
X200001000Y-76000000I0J-51000D01*
G01*
X200001000Y-77600000D01*
G75*
G02*
X199950000Y-77651000I-51000J0D01*
G01*
X198350000Y-77651000D01*
G75*
G02*
X198299000Y-77600000I0J51000D01*
G01*
G37*
X199150000Y-81880000D03*
X198005000Y-79340000D03*
X195715000Y-79340000D03*
X192280000Y-76800000D03*
X189990000Y-81880000D03*
X200295000Y-79340000D03*
X193425000Y-79340000D03*
X194570000Y-76800000D03*
X196860000Y-81880000D03*
X196860000Y-76800000D03*
X189990000Y-89240000D03*
X192280000Y-89240000D03*
X194570000Y-89240000D03*
X196860000Y-89240000D03*
X199150000Y-89240000D03*
X191135000Y-86700000D03*
X193425000Y-86700000D03*
X195715000Y-86700000D03*
X198005000Y-86700000D03*
X200295000Y-86700000D03*
X189990000Y-84160000D03*
X192280000Y-84160000D03*
X194570000Y-84160000D03*
X196860000Y-84160000D03*
G36*
G01*
X198299000Y-84960000D02*
X198299000Y-83360000D01*
G75*
G02*
X198350000Y-83309000I51000J0D01*
G01*
X199950000Y-83309000D01*
G75*
G02*
X200001000Y-83360000I0J-51000D01*
G01*
X200001000Y-84960000D01*
G75*
G02*
X199950000Y-85011000I-51000J0D01*
G01*
X198350000Y-85011000D01*
G75*
G02*
X198299000Y-84960000I0J51000D01*
G01*
G37*
D11*
X127945000Y-62745000D03*
X123445000Y-62745000D03*
D10*
X131545000Y-62745000D03*
X119845000Y-62745000D03*
G36*
G01*
X129294000Y-66095001D02*
X129294000Y-63744999D01*
G75*
G02*
X129344999Y-63694000I50999J0D01*
G01*
X130045001Y-63694000D01*
G75*
G02*
X130096000Y-63744999I0J-50999D01*
G01*
X130096000Y-66095001D01*
G75*
G02*
X130045001Y-66146000I-50999J0D01*
G01*
X129344999Y-66146000D01*
G75*
G02*
X129294000Y-66095001I0J50999D01*
G01*
G37*
G36*
G01*
X128294000Y-66095001D02*
X128294000Y-63744999D01*
G75*
G02*
X128344999Y-63694000I50999J0D01*
G01*
X129045001Y-63694000D01*
G75*
G02*
X129096000Y-63744999I0J-50999D01*
G01*
X129096000Y-66095001D01*
G75*
G02*
X129045001Y-66146000I-50999J0D01*
G01*
X128344999Y-66146000D01*
G75*
G02*
X128294000Y-66095001I0J50999D01*
G01*
G37*
G36*
G01*
X127294000Y-66095001D02*
X127294000Y-63744999D01*
G75*
G02*
X127344999Y-63694000I50999J0D01*
G01*
X128045001Y-63694000D01*
G75*
G02*
X128096000Y-63744999I0J-50999D01*
G01*
X128096000Y-66095001D01*
G75*
G02*
X128045001Y-66146000I-50999J0D01*
G01*
X127344999Y-66146000D01*
G75*
G02*
X127294000Y-66095001I0J50999D01*
G01*
G37*
G36*
G01*
X126294000Y-66095001D02*
X126294000Y-63744999D01*
G75*
G02*
X126344999Y-63694000I50999J0D01*
G01*
X127045001Y-63694000D01*
G75*
G02*
X127096000Y-63744999I0J-50999D01*
G01*
X127096000Y-66095001D01*
G75*
G02*
X127045001Y-66146000I-50999J0D01*
G01*
X126344999Y-66146000D01*
G75*
G02*
X126294000Y-66095001I0J50999D01*
G01*
G37*
G36*
G01*
X121294000Y-66095001D02*
X121294000Y-63744999D01*
G75*
G02*
X121344999Y-63694000I50999J0D01*
G01*
X122045001Y-63694000D01*
G75*
G02*
X122096000Y-63744999I0J-50999D01*
G01*
X122096000Y-66095001D01*
G75*
G02*
X122045001Y-66146000I-50999J0D01*
G01*
X121344999Y-66146000D01*
G75*
G02*
X121294000Y-66095001I0J50999D01*
G01*
G37*
G36*
G01*
X122294000Y-66095001D02*
X122294000Y-63744999D01*
G75*
G02*
X122344999Y-63694000I50999J0D01*
G01*
X123045001Y-63694000D01*
G75*
G02*
X123096000Y-63744999I0J-50999D01*
G01*
X123096000Y-66095001D01*
G75*
G02*
X123045001Y-66146000I-50999J0D01*
G01*
X122344999Y-66146000D01*
G75*
G02*
X122294000Y-66095001I0J50999D01*
G01*
G37*
G36*
G01*
X123294000Y-66095001D02*
X123294000Y-63744999D01*
G75*
G02*
X123344999Y-63694000I50999J0D01*
G01*
X124045001Y-63694000D01*
G75*
G02*
X124096000Y-63744999I0J-50999D01*
G01*
X124096000Y-66095001D01*
G75*
G02*
X124045001Y-66146000I-50999J0D01*
G01*
X123344999Y-66146000D01*
G75*
G02*
X123294000Y-66095001I0J50999D01*
G01*
G37*
G36*
G01*
X124294000Y-66095001D02*
X124294000Y-63744999D01*
G75*
G02*
X124344999Y-63694000I50999J0D01*
G01*
X125045001Y-63694000D01*
G75*
G02*
X125096000Y-63744999I0J-50999D01*
G01*
X125096000Y-66095001D01*
G75*
G02*
X125045001Y-66146000I-50999J0D01*
G01*
X124344999Y-66146000D01*
G75*
G02*
X124294000Y-66095001I0J50999D01*
G01*
G37*
G36*
G01*
X125294000Y-66095001D02*
X125294000Y-63744999D01*
G75*
G02*
X125344999Y-63694000I50999J0D01*
G01*
X126045001Y-63694000D01*
G75*
G02*
X126096000Y-63744999I0J-50999D01*
G01*
X126096000Y-66095001D01*
G75*
G02*
X126045001Y-66146000I-50999J0D01*
G01*
X125344999Y-66146000D01*
G75*
G02*
X125294000Y-66095001I0J50999D01*
G01*
G37*
X131545000Y-62745000D03*
X119845000Y-62745000D03*
D11*
X127945000Y-62745000D03*
X123445000Y-62745000D03*
G36*
G01*
X129149000Y-84960000D02*
X129149000Y-83360000D01*
G75*
G02*
X129200000Y-83309000I51000J0D01*
G01*
X130800000Y-83309000D01*
G75*
G02*
X130851000Y-83360000I0J-51000D01*
G01*
X130851000Y-84960000D01*
G75*
G02*
X130800000Y-85011000I-51000J0D01*
G01*
X129200000Y-85011000D01*
G75*
G02*
X129149000Y-84960000I0J51000D01*
G01*
G37*
D13*
X127710000Y-84160000D03*
X125420000Y-84160000D03*
X123130000Y-84160000D03*
X120840000Y-84160000D03*
X131145000Y-86700000D03*
X128855000Y-86700000D03*
X126565000Y-86700000D03*
X124275000Y-86700000D03*
X121985000Y-86700000D03*
X130000000Y-89240000D03*
X127710000Y-89240000D03*
X125420000Y-89240000D03*
X123130000Y-89240000D03*
X120840000Y-89240000D03*
X127710000Y-76800000D03*
X127710000Y-81880000D03*
X125420000Y-76800000D03*
X124275000Y-79340000D03*
X131145000Y-79340000D03*
X120840000Y-81880000D03*
X123130000Y-76800000D03*
X126565000Y-79340000D03*
X128855000Y-79340000D03*
X130000000Y-81880000D03*
G36*
G01*
X129149000Y-77600000D02*
X129149000Y-76000000D01*
G75*
G02*
X129200000Y-75949000I51000J0D01*
G01*
X130800000Y-75949000D01*
G75*
G02*
X130851000Y-76000000I0J-51000D01*
G01*
X130851000Y-77600000D01*
G75*
G02*
X130800000Y-77651000I-51000J0D01*
G01*
X129200000Y-77651000D01*
G75*
G02*
X129149000Y-77600000I0J51000D01*
G01*
G37*
X125420000Y-81880000D03*
X123130000Y-81880000D03*
X121985000Y-79340000D03*
X120840000Y-76800000D03*
D12*
X138200000Y-89270000D03*
X138210000Y-80480000D03*
X113210000Y-89270000D03*
X113210000Y-80470000D03*
D15*
G36*
X187597732Y-121475000D02*
G01*
X187598000Y-121476000D01*
X187598000Y-121674000D01*
X187597000Y-121675732D01*
X187596000Y-121676000D01*
X185144000Y-121676000D01*
X185142268Y-121675000D01*
X185142000Y-121674000D01*
X185142000Y-121476000D01*
X185143000Y-121474268D01*
X185144000Y-121474000D01*
X187596000Y-121474000D01*
X187597732Y-121475000D01*
G37*
G36*
X187597732Y-120475000D02*
G01*
X187598000Y-120476000D01*
X187598000Y-120674000D01*
X187597000Y-120675732D01*
X187596000Y-120676000D01*
X185144000Y-120676000D01*
X185142268Y-120675000D01*
X185142000Y-120674000D01*
X185142000Y-120476000D01*
X185143000Y-120474268D01*
X185144000Y-120474000D01*
X187596000Y-120474000D01*
X187597732Y-120475000D01*
G37*
G36*
X187597732Y-119475000D02*
G01*
X187598000Y-119476000D01*
X187598000Y-119674000D01*
X187597000Y-119675732D01*
X187596000Y-119676000D01*
X185144000Y-119676000D01*
X185142268Y-119675000D01*
X185142000Y-119674000D01*
X185142000Y-119476000D01*
X185143000Y-119474268D01*
X185144000Y-119474000D01*
X187596000Y-119474000D01*
X187597732Y-119475000D01*
G37*
G36*
X187597732Y-118475000D02*
G01*
X187598000Y-118476000D01*
X187598000Y-118674000D01*
X187597000Y-118675732D01*
X187596000Y-118676000D01*
X185144000Y-118676000D01*
X185142268Y-118675000D01*
X185142000Y-118674000D01*
X185142000Y-118476000D01*
X185143000Y-118474268D01*
X185144000Y-118474000D01*
X187596000Y-118474000D01*
X187597732Y-118475000D01*
G37*
G36*
X187597732Y-117475000D02*
G01*
X187598000Y-117476000D01*
X187598000Y-117674000D01*
X187597000Y-117675732D01*
X187596000Y-117676000D01*
X185144000Y-117676000D01*
X185142268Y-117675000D01*
X185142000Y-117674000D01*
X185142000Y-117476000D01*
X185143000Y-117474268D01*
X185144000Y-117474000D01*
X187596000Y-117474000D01*
X187597732Y-117475000D01*
G37*
G36*
X187597732Y-116475000D02*
G01*
X187598000Y-116476000D01*
X187598000Y-116674000D01*
X187597000Y-116675732D01*
X187596000Y-116676000D01*
X185144000Y-116676000D01*
X185142268Y-116675000D01*
X185142000Y-116674000D01*
X185142000Y-116476000D01*
X185143000Y-116474268D01*
X185144000Y-116474000D01*
X187596000Y-116474000D01*
X187597732Y-116475000D01*
G37*
G36*
X187597732Y-115475000D02*
G01*
X187598000Y-115476000D01*
X187598000Y-115674000D01*
X187597000Y-115675732D01*
X187596000Y-115676000D01*
X185144000Y-115676000D01*
X185142268Y-115675000D01*
X185142000Y-115674000D01*
X185142000Y-115476000D01*
X185143000Y-115474268D01*
X185144000Y-115474000D01*
X187596000Y-115474000D01*
X187597732Y-115475000D01*
G37*
G36*
X187597732Y-114475000D02*
G01*
X187598000Y-114476000D01*
X187598000Y-114674000D01*
X187597000Y-114675732D01*
X187596000Y-114676000D01*
X185144000Y-114676000D01*
X185142268Y-114675000D01*
X185142000Y-114674000D01*
X185142000Y-114476000D01*
X185143000Y-114474268D01*
X185144000Y-114474000D01*
X187596000Y-114474000D01*
X187597732Y-114475000D01*
G37*
G36*
X161995732Y-63693000D02*
G01*
X161996000Y-63694000D01*
X161996000Y-66146000D01*
X161995000Y-66147732D01*
X161994000Y-66148000D01*
X161796000Y-66148000D01*
X161794268Y-66147000D01*
X161794000Y-66146000D01*
X161794000Y-63694000D01*
X161795000Y-63692268D01*
X161796000Y-63692000D01*
X161994000Y-63692000D01*
X161995732Y-63693000D01*
G37*
G36*
X198445732Y-63693000D02*
G01*
X198446000Y-63694000D01*
X198446000Y-66146000D01*
X198445000Y-66147732D01*
X198444000Y-66148000D01*
X198246000Y-66148000D01*
X198244268Y-66147000D01*
X198244000Y-66146000D01*
X198244000Y-63694000D01*
X198245000Y-63692268D01*
X198246000Y-63692000D01*
X198444000Y-63692000D01*
X198445732Y-63693000D01*
G37*
G36*
X162995732Y-63693000D02*
G01*
X162996000Y-63694000D01*
X162996000Y-66146000D01*
X162995000Y-66147732D01*
X162994000Y-66148000D01*
X162796000Y-66148000D01*
X162794268Y-66147000D01*
X162794000Y-66146000D01*
X162794000Y-63694000D01*
X162795000Y-63692268D01*
X162796000Y-63692000D01*
X162994000Y-63692000D01*
X162995732Y-63693000D01*
G37*
G36*
X163995732Y-63693000D02*
G01*
X163996000Y-63694000D01*
X163996000Y-66146000D01*
X163995000Y-66147732D01*
X163994000Y-66148000D01*
X163796000Y-66148000D01*
X163794268Y-66147000D01*
X163794000Y-66146000D01*
X163794000Y-63694000D01*
X163795000Y-63692268D01*
X163796000Y-63692000D01*
X163994000Y-63692000D01*
X163995732Y-63693000D01*
G37*
G36*
X191445732Y-63693000D02*
G01*
X191446000Y-63694000D01*
X191446000Y-66146000D01*
X191445000Y-66147732D01*
X191444000Y-66148000D01*
X191246000Y-66148000D01*
X191244268Y-66147000D01*
X191244000Y-66146000D01*
X191244000Y-63694000D01*
X191245000Y-63692268D01*
X191246000Y-63692000D01*
X191444000Y-63692000D01*
X191445732Y-63693000D01*
G37*
G36*
X192445732Y-63693000D02*
G01*
X192446000Y-63694000D01*
X192446000Y-66146000D01*
X192445000Y-66147732D01*
X192444000Y-66148000D01*
X192246000Y-66148000D01*
X192244268Y-66147000D01*
X192244000Y-66146000D01*
X192244000Y-63694000D01*
X192245000Y-63692268D01*
X192246000Y-63692000D01*
X192444000Y-63692000D01*
X192445732Y-63693000D01*
G37*
G36*
X193445732Y-63693000D02*
G01*
X193446000Y-63694000D01*
X193446000Y-66146000D01*
X193445000Y-66147732D01*
X193444000Y-66148000D01*
X193246000Y-66148000D01*
X193244268Y-66147000D01*
X193244000Y-66146000D01*
X193244000Y-63694000D01*
X193245000Y-63692268D01*
X193246000Y-63692000D01*
X193444000Y-63692000D01*
X193445732Y-63693000D01*
G37*
G36*
X194445732Y-63693000D02*
G01*
X194446000Y-63694000D01*
X194446000Y-66146000D01*
X194445000Y-66147732D01*
X194444000Y-66148000D01*
X194246000Y-66148000D01*
X194244268Y-66147000D01*
X194244000Y-66146000D01*
X194244000Y-63694000D01*
X194245000Y-63692268D01*
X194246000Y-63692000D01*
X194444000Y-63692000D01*
X194445732Y-63693000D01*
G37*
G36*
X195445732Y-63693000D02*
G01*
X195446000Y-63694000D01*
X195446000Y-66146000D01*
X195445000Y-66147732D01*
X195444000Y-66148000D01*
X195246000Y-66148000D01*
X195244268Y-66147000D01*
X195244000Y-66146000D01*
X195244000Y-63694000D01*
X195245000Y-63692268D01*
X195246000Y-63692000D01*
X195444000Y-63692000D01*
X195445732Y-63693000D01*
G37*
G36*
X196445732Y-63693000D02*
G01*
X196446000Y-63694000D01*
X196446000Y-66146000D01*
X196445000Y-66147732D01*
X196444000Y-66148000D01*
X196246000Y-66148000D01*
X196244268Y-66147000D01*
X196244000Y-66146000D01*
X196244000Y-63694000D01*
X196245000Y-63692268D01*
X196246000Y-63692000D01*
X196444000Y-63692000D01*
X196445732Y-63693000D01*
G37*
G36*
X197445732Y-63693000D02*
G01*
X197446000Y-63694000D01*
X197446000Y-66146000D01*
X197445000Y-66147732D01*
X197444000Y-66148000D01*
X197246000Y-66148000D01*
X197244268Y-66147000D01*
X197244000Y-66146000D01*
X197244000Y-63694000D01*
X197245000Y-63692268D01*
X197246000Y-63692000D01*
X197444000Y-63692000D01*
X197445732Y-63693000D01*
G37*
G36*
X129295732Y-63693000D02*
G01*
X129296000Y-63694000D01*
X129296000Y-66146000D01*
X129295000Y-66147732D01*
X129294000Y-66148000D01*
X129096000Y-66148000D01*
X129094268Y-66147000D01*
X129094000Y-66146000D01*
X129094000Y-63694000D01*
X129095000Y-63692268D01*
X129096000Y-63692000D01*
X129294000Y-63692000D01*
X129295732Y-63693000D01*
G37*
G36*
X123295732Y-63693000D02*
G01*
X123296000Y-63694000D01*
X123296000Y-66146000D01*
X123295000Y-66147732D01*
X123294000Y-66148000D01*
X123096000Y-66148000D01*
X123094268Y-66147000D01*
X123094000Y-66146000D01*
X123094000Y-63694000D01*
X123095000Y-63692268D01*
X123096000Y-63692000D01*
X123294000Y-63692000D01*
X123295732Y-63693000D01*
G37*
G36*
X124295732Y-63693000D02*
G01*
X124296000Y-63694000D01*
X124296000Y-66146000D01*
X124295000Y-66147732D01*
X124294000Y-66148000D01*
X124096000Y-66148000D01*
X124094268Y-66147000D01*
X124094000Y-66146000D01*
X124094000Y-63694000D01*
X124095000Y-63692268D01*
X124096000Y-63692000D01*
X124294000Y-63692000D01*
X124295732Y-63693000D01*
G37*
G36*
X125295732Y-63693000D02*
G01*
X125296000Y-63694000D01*
X125296000Y-66146000D01*
X125295000Y-66147732D01*
X125294000Y-66148000D01*
X125096000Y-66148000D01*
X125094268Y-66147000D01*
X125094000Y-66146000D01*
X125094000Y-63694000D01*
X125095000Y-63692268D01*
X125096000Y-63692000D01*
X125294000Y-63692000D01*
X125295732Y-63693000D01*
G37*
G36*
X126295732Y-63693000D02*
G01*
X126296000Y-63694000D01*
X126296000Y-66146000D01*
X126295000Y-66147732D01*
X126294000Y-66148000D01*
X126096000Y-66148000D01*
X126094268Y-66147000D01*
X126094000Y-66146000D01*
X126094000Y-63694000D01*
X126095000Y-63692268D01*
X126096000Y-63692000D01*
X126294000Y-63692000D01*
X126295732Y-63693000D01*
G37*
G36*
X127295732Y-63693000D02*
G01*
X127296000Y-63694000D01*
X127296000Y-66146000D01*
X127295000Y-66147732D01*
X127294000Y-66148000D01*
X127096000Y-66148000D01*
X127094268Y-66147000D01*
X127094000Y-66146000D01*
X127094000Y-63694000D01*
X127095000Y-63692268D01*
X127096000Y-63692000D01*
X127294000Y-63692000D01*
X127295732Y-63693000D01*
G37*
G36*
X128295732Y-63693000D02*
G01*
X128296000Y-63694000D01*
X128296000Y-66146000D01*
X128295000Y-66147732D01*
X128294000Y-66148000D01*
X128096000Y-66148000D01*
X128094268Y-66147000D01*
X128094000Y-66146000D01*
X128094000Y-63694000D01*
X128095000Y-63692268D01*
X128096000Y-63692000D01*
X128294000Y-63692000D01*
X128295732Y-63693000D01*
G37*
G36*
X156995732Y-63693000D02*
G01*
X156996000Y-63694000D01*
X156996000Y-66146000D01*
X156995000Y-66147732D01*
X156994000Y-66148000D01*
X156796000Y-66148000D01*
X156794268Y-66147000D01*
X156794000Y-66146000D01*
X156794000Y-63694000D01*
X156795000Y-63692268D01*
X156796000Y-63692000D01*
X156994000Y-63692000D01*
X156995732Y-63693000D01*
G37*
G36*
X157995732Y-63693000D02*
G01*
X157996000Y-63694000D01*
X157996000Y-66146000D01*
X157995000Y-66147732D01*
X157994000Y-66148000D01*
X157796000Y-66148000D01*
X157794268Y-66147000D01*
X157794000Y-66146000D01*
X157794000Y-63694000D01*
X157795000Y-63692268D01*
X157796000Y-63692000D01*
X157994000Y-63692000D01*
X157995732Y-63693000D01*
G37*
G36*
X158995732Y-63693000D02*
G01*
X158996000Y-63694000D01*
X158996000Y-66146000D01*
X158995000Y-66147732D01*
X158994000Y-66148000D01*
X158796000Y-66148000D01*
X158794268Y-66147000D01*
X158794000Y-66146000D01*
X158794000Y-63694000D01*
X158795000Y-63692268D01*
X158796000Y-63692000D01*
X158994000Y-63692000D01*
X158995732Y-63693000D01*
G37*
G36*
X159995732Y-63693000D02*
G01*
X159996000Y-63694000D01*
X159996000Y-66146000D01*
X159995000Y-66147732D01*
X159994000Y-66148000D01*
X159796000Y-66148000D01*
X159794268Y-66147000D01*
X159794000Y-66146000D01*
X159794000Y-63694000D01*
X159795000Y-63692268D01*
X159796000Y-63692000D01*
X159994000Y-63692000D01*
X159995732Y-63693000D01*
G37*
G36*
X122295732Y-63693000D02*
G01*
X122296000Y-63694000D01*
X122296000Y-66146000D01*
X122295000Y-66147732D01*
X122294000Y-66148000D01*
X122096000Y-66148000D01*
X122094268Y-66147000D01*
X122094000Y-66146000D01*
X122094000Y-63694000D01*
X122095000Y-63692268D01*
X122096000Y-63692000D01*
X122294000Y-63692000D01*
X122295732Y-63693000D01*
G37*
G36*
X160995732Y-63693000D02*
G01*
X160996000Y-63694000D01*
X160996000Y-66146000D01*
X160995000Y-66147732D01*
X160994000Y-66148000D01*
X160796000Y-66148000D01*
X160794268Y-66147000D01*
X160794000Y-66146000D01*
X160794000Y-63694000D01*
X160795000Y-63692268D01*
X160796000Y-63692000D01*
X160994000Y-63692000D01*
X160995732Y-63693000D01*
G37*
M02*
