G04 #@! TF.GenerationSoftware,KiCad,Pcbnew,5.1.9-73d0e3b20d~88~ubuntu20.04.1*
G04 #@! TF.CreationDate,2021-06-09T12:04:27-03:00*
G04 #@! TF.ProjectId,adaptador_db15_usb,61646170-7461-4646-9f72-5f646231355f,rev?*
G04 #@! TF.SameCoordinates,Original*
G04 #@! TF.FileFunction,Legend,Bot*
G04 #@! TF.FilePolarity,Positive*
%FSLAX46Y46*%
G04 Gerber Fmt 4.6, Leading zero omitted, Abs format (unit mm)*
G04 Created by KiCad (PCBNEW 5.1.9-73d0e3b20d~88~ubuntu20.04.1) date 2021-06-09 12:04:27*
%MOMM*%
%LPD*%
G01*
G04 APERTURE LIST*
%ADD10C,0.200000*%
%ADD11C,0.127000*%
%ADD12C,0.150000*%
G04 APERTURE END LIST*
D10*
X163495000Y-66845000D02*
G75*
G03*
X163495000Y-66845000I-100000J0D01*
G01*
D11*
X166395000Y-60045000D02*
X166395000Y-60745000D01*
X154395000Y-60045000D02*
X166395000Y-60045000D01*
X154395000Y-60745000D02*
X154395000Y-60045000D01*
X190545000Y-112075000D02*
X191245000Y-112075000D01*
X191245000Y-112075000D02*
X191245000Y-124075000D01*
X191245000Y-124075000D02*
X190545000Y-124075000D01*
D10*
X184545000Y-121075000D02*
G75*
G03*
X184545000Y-121075000I-100000J0D01*
G01*
X197945000Y-66845000D02*
G75*
G03*
X197945000Y-66845000I-100000J0D01*
G01*
D11*
X200845000Y-60045000D02*
X200845000Y-60745000D01*
X188845000Y-60045000D02*
X200845000Y-60045000D01*
X188845000Y-60745000D02*
X188845000Y-60045000D01*
X119695000Y-60745000D02*
X119695000Y-60045000D01*
X119695000Y-60045000D02*
X131695000Y-60045000D01*
X131695000Y-60045000D02*
X131695000Y-60745000D01*
D10*
X128795000Y-66845000D02*
G75*
G03*
X128795000Y-66845000I-100000J0D01*
G01*
D12*
X160613333Y-68052380D02*
X160613333Y-68766666D01*
X160660952Y-68909523D01*
X160756190Y-69004761D01*
X160899047Y-69052380D01*
X160994285Y-69052380D01*
X160232380Y-68052380D02*
X159613333Y-68052380D01*
X159946666Y-68433333D01*
X159803809Y-68433333D01*
X159708571Y-68480952D01*
X159660952Y-68528571D01*
X159613333Y-68623809D01*
X159613333Y-68861904D01*
X159660952Y-68957142D01*
X159708571Y-69004761D01*
X159803809Y-69052380D01*
X160089523Y-69052380D01*
X160184761Y-69004761D01*
X160232380Y-68957142D01*
X182142380Y-117626666D02*
X182856666Y-117626666D01*
X182999523Y-117579047D01*
X183094761Y-117483809D01*
X183142380Y-117340952D01*
X183142380Y-117245714D01*
X182142380Y-118007619D02*
X182142380Y-118626666D01*
X182523333Y-118293333D01*
X182523333Y-118436190D01*
X182570952Y-118531428D01*
X182618571Y-118579047D01*
X182713809Y-118626666D01*
X182951904Y-118626666D01*
X183047142Y-118579047D01*
X183094761Y-118531428D01*
X183142380Y-118436190D01*
X183142380Y-118150476D01*
X183094761Y-118055238D01*
X183047142Y-118007619D01*
X195063333Y-68052380D02*
X195063333Y-68766666D01*
X195110952Y-68909523D01*
X195206190Y-69004761D01*
X195349047Y-69052380D01*
X195444285Y-69052380D01*
X194682380Y-68052380D02*
X194063333Y-68052380D01*
X194396666Y-68433333D01*
X194253809Y-68433333D01*
X194158571Y-68480952D01*
X194110952Y-68528571D01*
X194063333Y-68623809D01*
X194063333Y-68861904D01*
X194110952Y-68957142D01*
X194158571Y-69004761D01*
X194253809Y-69052380D01*
X194539523Y-69052380D01*
X194634761Y-69004761D01*
X194682380Y-68957142D01*
X125913333Y-68052380D02*
X125913333Y-68766666D01*
X125960952Y-68909523D01*
X126056190Y-69004761D01*
X126199047Y-69052380D01*
X126294285Y-69052380D01*
X125532380Y-68052380D02*
X124913333Y-68052380D01*
X125246666Y-68433333D01*
X125103809Y-68433333D01*
X125008571Y-68480952D01*
X124960952Y-68528571D01*
X124913333Y-68623809D01*
X124913333Y-68861904D01*
X124960952Y-68957142D01*
X125008571Y-69004761D01*
X125103809Y-69052380D01*
X125389523Y-69052380D01*
X125484761Y-69004761D01*
X125532380Y-68957142D01*
M02*
