G04 #@! TF.GenerationSoftware,KiCad,Pcbnew,5.1.9-73d0e3b20d~88~ubuntu20.04.1*
G04 #@! TF.CreationDate,2021-06-09T12:04:27-03:00*
G04 #@! TF.ProjectId,adaptador_db15_usb,61646170-7461-4646-9f72-5f646231355f,rev?*
G04 #@! TF.SameCoordinates,Original*
G04 #@! TF.FileFunction,Other,Fab,Bot*
%FSLAX46Y46*%
G04 Gerber Fmt 4.6, Leading zero omitted, Abs format (unit mm)*
G04 Created by KiCad (PCBNEW 5.1.9-73d0e3b20d~88~ubuntu20.04.1) date 2021-06-09 12:04:27*
%MOMM*%
%LPD*%
G01*
G04 APERTURE LIST*
%ADD10C,0.150000*%
%ADD11C,0.200000*%
%ADD12C,0.127000*%
G04 APERTURE END LIST*
D10*
X177747142Y-77996190D02*
X177794761Y-77948571D01*
X177842380Y-77805714D01*
X177842380Y-77710476D01*
X177794761Y-77567619D01*
X177699523Y-77472380D01*
X177604285Y-77424761D01*
X177413809Y-77377142D01*
X177270952Y-77377142D01*
X177080476Y-77424761D01*
X176985238Y-77472380D01*
X176890000Y-77567619D01*
X176842380Y-77710476D01*
X176842380Y-77805714D01*
X176890000Y-77948571D01*
X176937619Y-77996190D01*
X177175714Y-78853333D02*
X177842380Y-78853333D01*
X177175714Y-78424761D02*
X177699523Y-78424761D01*
X177794761Y-78472380D01*
X177842380Y-78567619D01*
X177842380Y-78710476D01*
X177794761Y-78805714D01*
X177747142Y-78853333D01*
X177175714Y-79186666D02*
X177175714Y-79567619D01*
X176842380Y-79329523D02*
X177699523Y-79329523D01*
X177794761Y-79377142D01*
X177842380Y-79472380D01*
X177842380Y-79567619D01*
X177842380Y-80662857D02*
X176842380Y-80662857D01*
X177175714Y-81139047D02*
X177842380Y-81139047D01*
X177270952Y-81139047D02*
X177223333Y-81186666D01*
X177175714Y-81281904D01*
X177175714Y-81424761D01*
X177223333Y-81520000D01*
X177318571Y-81567619D01*
X177842380Y-81567619D01*
X177794761Y-81996190D02*
X177842380Y-82091428D01*
X177842380Y-82281904D01*
X177794761Y-82377142D01*
X177699523Y-82424761D01*
X177651904Y-82424761D01*
X177556666Y-82377142D01*
X177509047Y-82281904D01*
X177509047Y-82139047D01*
X177461428Y-82043809D01*
X177366190Y-81996190D01*
X177318571Y-81996190D01*
X177223333Y-82043809D01*
X177175714Y-82139047D01*
X177175714Y-82281904D01*
X177223333Y-82377142D01*
X177842380Y-82853333D02*
X177175714Y-82853333D01*
X176842380Y-82853333D02*
X176890000Y-82805714D01*
X176937619Y-82853333D01*
X176890000Y-82900952D01*
X176842380Y-82853333D01*
X176937619Y-82853333D01*
X177842380Y-83758095D02*
X176842380Y-83758095D01*
X177794761Y-83758095D02*
X177842380Y-83662857D01*
X177842380Y-83472380D01*
X177794761Y-83377142D01*
X177747142Y-83329523D01*
X177651904Y-83281904D01*
X177366190Y-83281904D01*
X177270952Y-83329523D01*
X177223333Y-83377142D01*
X177175714Y-83472380D01*
X177175714Y-83662857D01*
X177223333Y-83758095D01*
X177794761Y-84615238D02*
X177842380Y-84520000D01*
X177842380Y-84329523D01*
X177794761Y-84234285D01*
X177699523Y-84186666D01*
X177318571Y-84186666D01*
X177223333Y-84234285D01*
X177175714Y-84329523D01*
X177175714Y-84520000D01*
X177223333Y-84615238D01*
X177318571Y-84662857D01*
X177413809Y-84662857D01*
X177509047Y-84186666D01*
X177957142Y-51476190D02*
X178004761Y-51428571D01*
X178052380Y-51285714D01*
X178052380Y-51190476D01*
X178004761Y-51047619D01*
X177909523Y-50952380D01*
X177814285Y-50904761D01*
X177623809Y-50857142D01*
X177480952Y-50857142D01*
X177290476Y-50904761D01*
X177195238Y-50952380D01*
X177100000Y-51047619D01*
X177052380Y-51190476D01*
X177052380Y-51285714D01*
X177100000Y-51428571D01*
X177147619Y-51476190D01*
X177385714Y-52333333D02*
X178052380Y-52333333D01*
X177385714Y-51904761D02*
X177909523Y-51904761D01*
X178004761Y-51952380D01*
X178052380Y-52047619D01*
X178052380Y-52190476D01*
X178004761Y-52285714D01*
X177957142Y-52333333D01*
X177385714Y-52666666D02*
X177385714Y-53047619D01*
X177052380Y-52809523D02*
X177909523Y-52809523D01*
X178004761Y-52857142D01*
X178052380Y-52952380D01*
X178052380Y-53047619D01*
X178052380Y-54142857D02*
X177052380Y-54142857D01*
X177385714Y-54619047D02*
X178052380Y-54619047D01*
X177480952Y-54619047D02*
X177433333Y-54666666D01*
X177385714Y-54761904D01*
X177385714Y-54904761D01*
X177433333Y-55000000D01*
X177528571Y-55047619D01*
X178052380Y-55047619D01*
X178004761Y-55476190D02*
X178052380Y-55571428D01*
X178052380Y-55761904D01*
X178004761Y-55857142D01*
X177909523Y-55904761D01*
X177861904Y-55904761D01*
X177766666Y-55857142D01*
X177719047Y-55761904D01*
X177719047Y-55619047D01*
X177671428Y-55523809D01*
X177576190Y-55476190D01*
X177528571Y-55476190D01*
X177433333Y-55523809D01*
X177385714Y-55619047D01*
X177385714Y-55761904D01*
X177433333Y-55857142D01*
X178052380Y-56333333D02*
X177385714Y-56333333D01*
X177052380Y-56333333D02*
X177100000Y-56285714D01*
X177147619Y-56333333D01*
X177100000Y-56380952D01*
X177052380Y-56333333D01*
X177147619Y-56333333D01*
X178052380Y-57238095D02*
X177052380Y-57238095D01*
X178004761Y-57238095D02*
X178052380Y-57142857D01*
X178052380Y-56952380D01*
X178004761Y-56857142D01*
X177957142Y-56809523D01*
X177861904Y-56761904D01*
X177576190Y-56761904D01*
X177480952Y-56809523D01*
X177433333Y-56857142D01*
X177385714Y-56952380D01*
X177385714Y-57142857D01*
X177433333Y-57238095D01*
X178004761Y-58095238D02*
X178052380Y-58000000D01*
X178052380Y-57809523D01*
X178004761Y-57714285D01*
X177909523Y-57666666D01*
X177528571Y-57666666D01*
X177433333Y-57714285D01*
X177385714Y-57809523D01*
X177385714Y-58000000D01*
X177433333Y-58095238D01*
X177528571Y-58142857D01*
X177623809Y-58142857D01*
X177719047Y-57666666D01*
X143337142Y-52056190D02*
X143384761Y-52008571D01*
X143432380Y-51865714D01*
X143432380Y-51770476D01*
X143384761Y-51627619D01*
X143289523Y-51532380D01*
X143194285Y-51484761D01*
X143003809Y-51437142D01*
X142860952Y-51437142D01*
X142670476Y-51484761D01*
X142575238Y-51532380D01*
X142480000Y-51627619D01*
X142432380Y-51770476D01*
X142432380Y-51865714D01*
X142480000Y-52008571D01*
X142527619Y-52056190D01*
X142765714Y-52913333D02*
X143432380Y-52913333D01*
X142765714Y-52484761D02*
X143289523Y-52484761D01*
X143384761Y-52532380D01*
X143432380Y-52627619D01*
X143432380Y-52770476D01*
X143384761Y-52865714D01*
X143337142Y-52913333D01*
X142765714Y-53246666D02*
X142765714Y-53627619D01*
X142432380Y-53389523D02*
X143289523Y-53389523D01*
X143384761Y-53437142D01*
X143432380Y-53532380D01*
X143432380Y-53627619D01*
X143432380Y-54722857D02*
X142432380Y-54722857D01*
X142765714Y-55199047D02*
X143432380Y-55199047D01*
X142860952Y-55199047D02*
X142813333Y-55246666D01*
X142765714Y-55341904D01*
X142765714Y-55484761D01*
X142813333Y-55580000D01*
X142908571Y-55627619D01*
X143432380Y-55627619D01*
X143384761Y-56056190D02*
X143432380Y-56151428D01*
X143432380Y-56341904D01*
X143384761Y-56437142D01*
X143289523Y-56484761D01*
X143241904Y-56484761D01*
X143146666Y-56437142D01*
X143099047Y-56341904D01*
X143099047Y-56199047D01*
X143051428Y-56103809D01*
X142956190Y-56056190D01*
X142908571Y-56056190D01*
X142813333Y-56103809D01*
X142765714Y-56199047D01*
X142765714Y-56341904D01*
X142813333Y-56437142D01*
X143432380Y-56913333D02*
X142765714Y-56913333D01*
X142432380Y-56913333D02*
X142480000Y-56865714D01*
X142527619Y-56913333D01*
X142480000Y-56960952D01*
X142432380Y-56913333D01*
X142527619Y-56913333D01*
X143432380Y-57818095D02*
X142432380Y-57818095D01*
X143384761Y-57818095D02*
X143432380Y-57722857D01*
X143432380Y-57532380D01*
X143384761Y-57437142D01*
X143337142Y-57389523D01*
X143241904Y-57341904D01*
X142956190Y-57341904D01*
X142860952Y-57389523D01*
X142813333Y-57437142D01*
X142765714Y-57532380D01*
X142765714Y-57722857D01*
X142813333Y-57818095D01*
X143384761Y-58675238D02*
X143432380Y-58580000D01*
X143432380Y-58389523D01*
X143384761Y-58294285D01*
X143289523Y-58246666D01*
X142908571Y-58246666D01*
X142813333Y-58294285D01*
X142765714Y-58389523D01*
X142765714Y-58580000D01*
X142813333Y-58675238D01*
X142908571Y-58722857D01*
X143003809Y-58722857D01*
X143099047Y-58246666D01*
X143187142Y-78396190D02*
X143234761Y-78348571D01*
X143282380Y-78205714D01*
X143282380Y-78110476D01*
X143234761Y-77967619D01*
X143139523Y-77872380D01*
X143044285Y-77824761D01*
X142853809Y-77777142D01*
X142710952Y-77777142D01*
X142520476Y-77824761D01*
X142425238Y-77872380D01*
X142330000Y-77967619D01*
X142282380Y-78110476D01*
X142282380Y-78205714D01*
X142330000Y-78348571D01*
X142377619Y-78396190D01*
X142615714Y-79253333D02*
X143282380Y-79253333D01*
X142615714Y-78824761D02*
X143139523Y-78824761D01*
X143234761Y-78872380D01*
X143282380Y-78967619D01*
X143282380Y-79110476D01*
X143234761Y-79205714D01*
X143187142Y-79253333D01*
X142615714Y-79586666D02*
X142615714Y-79967619D01*
X142282380Y-79729523D02*
X143139523Y-79729523D01*
X143234761Y-79777142D01*
X143282380Y-79872380D01*
X143282380Y-79967619D01*
X143282380Y-81062857D02*
X142282380Y-81062857D01*
X142615714Y-81539047D02*
X143282380Y-81539047D01*
X142710952Y-81539047D02*
X142663333Y-81586666D01*
X142615714Y-81681904D01*
X142615714Y-81824761D01*
X142663333Y-81920000D01*
X142758571Y-81967619D01*
X143282380Y-81967619D01*
X143234761Y-82396190D02*
X143282380Y-82491428D01*
X143282380Y-82681904D01*
X143234761Y-82777142D01*
X143139523Y-82824761D01*
X143091904Y-82824761D01*
X142996666Y-82777142D01*
X142949047Y-82681904D01*
X142949047Y-82539047D01*
X142901428Y-82443809D01*
X142806190Y-82396190D01*
X142758571Y-82396190D01*
X142663333Y-82443809D01*
X142615714Y-82539047D01*
X142615714Y-82681904D01*
X142663333Y-82777142D01*
X143282380Y-83253333D02*
X142615714Y-83253333D01*
X142282380Y-83253333D02*
X142330000Y-83205714D01*
X142377619Y-83253333D01*
X142330000Y-83300952D01*
X142282380Y-83253333D01*
X142377619Y-83253333D01*
X143282380Y-84158095D02*
X142282380Y-84158095D01*
X143234761Y-84158095D02*
X143282380Y-84062857D01*
X143282380Y-83872380D01*
X143234761Y-83777142D01*
X143187142Y-83729523D01*
X143091904Y-83681904D01*
X142806190Y-83681904D01*
X142710952Y-83729523D01*
X142663333Y-83777142D01*
X142615714Y-83872380D01*
X142615714Y-84062857D01*
X142663333Y-84158095D01*
X143234761Y-85015238D02*
X143282380Y-84920000D01*
X143282380Y-84729523D01*
X143234761Y-84634285D01*
X143139523Y-84586666D01*
X142758571Y-84586666D01*
X142663333Y-84634285D01*
X142615714Y-84729523D01*
X142615714Y-84920000D01*
X142663333Y-85015238D01*
X142758571Y-85062857D01*
X142853809Y-85062857D01*
X142949047Y-84586666D01*
X150937142Y-107356190D02*
X150984761Y-107308571D01*
X151032380Y-107165714D01*
X151032380Y-107070476D01*
X150984761Y-106927619D01*
X150889523Y-106832380D01*
X150794285Y-106784761D01*
X150603809Y-106737142D01*
X150460952Y-106737142D01*
X150270476Y-106784761D01*
X150175238Y-106832380D01*
X150080000Y-106927619D01*
X150032380Y-107070476D01*
X150032380Y-107165714D01*
X150080000Y-107308571D01*
X150127619Y-107356190D01*
X150365714Y-108213333D02*
X151032380Y-108213333D01*
X150365714Y-107784761D02*
X150889523Y-107784761D01*
X150984761Y-107832380D01*
X151032380Y-107927619D01*
X151032380Y-108070476D01*
X150984761Y-108165714D01*
X150937142Y-108213333D01*
X150365714Y-108546666D02*
X150365714Y-108927619D01*
X150032380Y-108689523D02*
X150889523Y-108689523D01*
X150984761Y-108737142D01*
X151032380Y-108832380D01*
X151032380Y-108927619D01*
X151032380Y-110022857D02*
X150032380Y-110022857D01*
X150365714Y-110499047D02*
X151032380Y-110499047D01*
X150460952Y-110499047D02*
X150413333Y-110546666D01*
X150365714Y-110641904D01*
X150365714Y-110784761D01*
X150413333Y-110880000D01*
X150508571Y-110927619D01*
X151032380Y-110927619D01*
X150984761Y-111356190D02*
X151032380Y-111451428D01*
X151032380Y-111641904D01*
X150984761Y-111737142D01*
X150889523Y-111784761D01*
X150841904Y-111784761D01*
X150746666Y-111737142D01*
X150699047Y-111641904D01*
X150699047Y-111499047D01*
X150651428Y-111403809D01*
X150556190Y-111356190D01*
X150508571Y-111356190D01*
X150413333Y-111403809D01*
X150365714Y-111499047D01*
X150365714Y-111641904D01*
X150413333Y-111737142D01*
X151032380Y-112213333D02*
X150365714Y-112213333D01*
X150032380Y-112213333D02*
X150080000Y-112165714D01*
X150127619Y-112213333D01*
X150080000Y-112260952D01*
X150032380Y-112213333D01*
X150127619Y-112213333D01*
X151032380Y-113118095D02*
X150032380Y-113118095D01*
X150984761Y-113118095D02*
X151032380Y-113022857D01*
X151032380Y-112832380D01*
X150984761Y-112737142D01*
X150937142Y-112689523D01*
X150841904Y-112641904D01*
X150556190Y-112641904D01*
X150460952Y-112689523D01*
X150413333Y-112737142D01*
X150365714Y-112832380D01*
X150365714Y-113022857D01*
X150413333Y-113118095D01*
X150984761Y-113975238D02*
X151032380Y-113880000D01*
X151032380Y-113689523D01*
X150984761Y-113594285D01*
X150889523Y-113546666D01*
X150508571Y-113546666D01*
X150413333Y-113594285D01*
X150365714Y-113689523D01*
X150365714Y-113880000D01*
X150413333Y-113975238D01*
X150508571Y-114022857D01*
X150603809Y-114022857D01*
X150699047Y-113546666D01*
X150817142Y-124486190D02*
X150864761Y-124438571D01*
X150912380Y-124295714D01*
X150912380Y-124200476D01*
X150864761Y-124057619D01*
X150769523Y-123962380D01*
X150674285Y-123914761D01*
X150483809Y-123867142D01*
X150340952Y-123867142D01*
X150150476Y-123914761D01*
X150055238Y-123962380D01*
X149960000Y-124057619D01*
X149912380Y-124200476D01*
X149912380Y-124295714D01*
X149960000Y-124438571D01*
X150007619Y-124486190D01*
X150245714Y-125343333D02*
X150912380Y-125343333D01*
X150245714Y-124914761D02*
X150769523Y-124914761D01*
X150864761Y-124962380D01*
X150912380Y-125057619D01*
X150912380Y-125200476D01*
X150864761Y-125295714D01*
X150817142Y-125343333D01*
X150245714Y-125676666D02*
X150245714Y-126057619D01*
X149912380Y-125819523D02*
X150769523Y-125819523D01*
X150864761Y-125867142D01*
X150912380Y-125962380D01*
X150912380Y-126057619D01*
X150912380Y-127152857D02*
X149912380Y-127152857D01*
X150245714Y-127629047D02*
X150912380Y-127629047D01*
X150340952Y-127629047D02*
X150293333Y-127676666D01*
X150245714Y-127771904D01*
X150245714Y-127914761D01*
X150293333Y-128010000D01*
X150388571Y-128057619D01*
X150912380Y-128057619D01*
X150864761Y-128486190D02*
X150912380Y-128581428D01*
X150912380Y-128771904D01*
X150864761Y-128867142D01*
X150769523Y-128914761D01*
X150721904Y-128914761D01*
X150626666Y-128867142D01*
X150579047Y-128771904D01*
X150579047Y-128629047D01*
X150531428Y-128533809D01*
X150436190Y-128486190D01*
X150388571Y-128486190D01*
X150293333Y-128533809D01*
X150245714Y-128629047D01*
X150245714Y-128771904D01*
X150293333Y-128867142D01*
X150912380Y-129343333D02*
X150245714Y-129343333D01*
X149912380Y-129343333D02*
X149960000Y-129295714D01*
X150007619Y-129343333D01*
X149960000Y-129390952D01*
X149912380Y-129343333D01*
X150007619Y-129343333D01*
X150912380Y-130248095D02*
X149912380Y-130248095D01*
X150864761Y-130248095D02*
X150912380Y-130152857D01*
X150912380Y-129962380D01*
X150864761Y-129867142D01*
X150817142Y-129819523D01*
X150721904Y-129771904D01*
X150436190Y-129771904D01*
X150340952Y-129819523D01*
X150293333Y-129867142D01*
X150245714Y-129962380D01*
X150245714Y-130152857D01*
X150293333Y-130248095D01*
X150864761Y-131105238D02*
X150912380Y-131010000D01*
X150912380Y-130819523D01*
X150864761Y-130724285D01*
X150769523Y-130676666D01*
X150388571Y-130676666D01*
X150293333Y-130724285D01*
X150245714Y-130819523D01*
X150245714Y-131010000D01*
X150293333Y-131105238D01*
X150388571Y-131152857D01*
X150483809Y-131152857D01*
X150579047Y-130676666D01*
X168833809Y-135567142D02*
X168881428Y-135614761D01*
X169024285Y-135662380D01*
X169119523Y-135662380D01*
X169262380Y-135614761D01*
X169357619Y-135519523D01*
X169405238Y-135424285D01*
X169452857Y-135233809D01*
X169452857Y-135090952D01*
X169405238Y-134900476D01*
X169357619Y-134805238D01*
X169262380Y-134710000D01*
X169119523Y-134662380D01*
X169024285Y-134662380D01*
X168881428Y-134710000D01*
X168833809Y-134757619D01*
X167976666Y-134995714D02*
X167976666Y-135662380D01*
X168405238Y-134995714D02*
X168405238Y-135519523D01*
X168357619Y-135614761D01*
X168262380Y-135662380D01*
X168119523Y-135662380D01*
X168024285Y-135614761D01*
X167976666Y-135567142D01*
X167643333Y-134995714D02*
X167262380Y-134995714D01*
X167500476Y-134662380D02*
X167500476Y-135519523D01*
X167452857Y-135614761D01*
X167357619Y-135662380D01*
X167262380Y-135662380D01*
X166167142Y-135662380D02*
X166167142Y-134662380D01*
X165690952Y-134995714D02*
X165690952Y-135662380D01*
X165690952Y-135090952D02*
X165643333Y-135043333D01*
X165548095Y-134995714D01*
X165405238Y-134995714D01*
X165310000Y-135043333D01*
X165262380Y-135138571D01*
X165262380Y-135662380D01*
X164833809Y-135614761D02*
X164738571Y-135662380D01*
X164548095Y-135662380D01*
X164452857Y-135614761D01*
X164405238Y-135519523D01*
X164405238Y-135471904D01*
X164452857Y-135376666D01*
X164548095Y-135329047D01*
X164690952Y-135329047D01*
X164786190Y-135281428D01*
X164833809Y-135186190D01*
X164833809Y-135138571D01*
X164786190Y-135043333D01*
X164690952Y-134995714D01*
X164548095Y-134995714D01*
X164452857Y-135043333D01*
X163976666Y-135662380D02*
X163976666Y-134995714D01*
X163976666Y-134662380D02*
X164024285Y-134710000D01*
X163976666Y-134757619D01*
X163929047Y-134710000D01*
X163976666Y-134662380D01*
X163976666Y-134757619D01*
X163071904Y-135662380D02*
X163071904Y-134662380D01*
X163071904Y-135614761D02*
X163167142Y-135662380D01*
X163357619Y-135662380D01*
X163452857Y-135614761D01*
X163500476Y-135567142D01*
X163548095Y-135471904D01*
X163548095Y-135186190D01*
X163500476Y-135090952D01*
X163452857Y-135043333D01*
X163357619Y-134995714D01*
X163167142Y-134995714D01*
X163071904Y-135043333D01*
X162214761Y-135614761D02*
X162310000Y-135662380D01*
X162500476Y-135662380D01*
X162595714Y-135614761D01*
X162643333Y-135519523D01*
X162643333Y-135138571D01*
X162595714Y-135043333D01*
X162500476Y-134995714D01*
X162310000Y-134995714D01*
X162214761Y-135043333D01*
X162167142Y-135138571D01*
X162167142Y-135233809D01*
X162643333Y-135329047D01*
X197893809Y-135597142D02*
X197941428Y-135644761D01*
X198084285Y-135692380D01*
X198179523Y-135692380D01*
X198322380Y-135644761D01*
X198417619Y-135549523D01*
X198465238Y-135454285D01*
X198512857Y-135263809D01*
X198512857Y-135120952D01*
X198465238Y-134930476D01*
X198417619Y-134835238D01*
X198322380Y-134740000D01*
X198179523Y-134692380D01*
X198084285Y-134692380D01*
X197941428Y-134740000D01*
X197893809Y-134787619D01*
X197036666Y-135025714D02*
X197036666Y-135692380D01*
X197465238Y-135025714D02*
X197465238Y-135549523D01*
X197417619Y-135644761D01*
X197322380Y-135692380D01*
X197179523Y-135692380D01*
X197084285Y-135644761D01*
X197036666Y-135597142D01*
X196703333Y-135025714D02*
X196322380Y-135025714D01*
X196560476Y-134692380D02*
X196560476Y-135549523D01*
X196512857Y-135644761D01*
X196417619Y-135692380D01*
X196322380Y-135692380D01*
X195227142Y-135692380D02*
X195227142Y-134692380D01*
X194750952Y-135025714D02*
X194750952Y-135692380D01*
X194750952Y-135120952D02*
X194703333Y-135073333D01*
X194608095Y-135025714D01*
X194465238Y-135025714D01*
X194370000Y-135073333D01*
X194322380Y-135168571D01*
X194322380Y-135692380D01*
X193893809Y-135644761D02*
X193798571Y-135692380D01*
X193608095Y-135692380D01*
X193512857Y-135644761D01*
X193465238Y-135549523D01*
X193465238Y-135501904D01*
X193512857Y-135406666D01*
X193608095Y-135359047D01*
X193750952Y-135359047D01*
X193846190Y-135311428D01*
X193893809Y-135216190D01*
X193893809Y-135168571D01*
X193846190Y-135073333D01*
X193750952Y-135025714D01*
X193608095Y-135025714D01*
X193512857Y-135073333D01*
X193036666Y-135692380D02*
X193036666Y-135025714D01*
X193036666Y-134692380D02*
X193084285Y-134740000D01*
X193036666Y-134787619D01*
X192989047Y-134740000D01*
X193036666Y-134692380D01*
X193036666Y-134787619D01*
X192131904Y-135692380D02*
X192131904Y-134692380D01*
X192131904Y-135644761D02*
X192227142Y-135692380D01*
X192417619Y-135692380D01*
X192512857Y-135644761D01*
X192560476Y-135597142D01*
X192608095Y-135501904D01*
X192608095Y-135216190D01*
X192560476Y-135120952D01*
X192512857Y-135073333D01*
X192417619Y-135025714D01*
X192227142Y-135025714D01*
X192131904Y-135073333D01*
X191274761Y-135644761D02*
X191370000Y-135692380D01*
X191560476Y-135692380D01*
X191655714Y-135644761D01*
X191703333Y-135549523D01*
X191703333Y-135168571D01*
X191655714Y-135073333D01*
X191560476Y-135025714D01*
X191370000Y-135025714D01*
X191274761Y-135073333D01*
X191227142Y-135168571D01*
X191227142Y-135263809D01*
X191703333Y-135359047D01*
X205763809Y-101027142D02*
X205811428Y-101074761D01*
X205954285Y-101122380D01*
X206049523Y-101122380D01*
X206192380Y-101074761D01*
X206287619Y-100979523D01*
X206335238Y-100884285D01*
X206382857Y-100693809D01*
X206382857Y-100550952D01*
X206335238Y-100360476D01*
X206287619Y-100265238D01*
X206192380Y-100170000D01*
X206049523Y-100122380D01*
X205954285Y-100122380D01*
X205811428Y-100170000D01*
X205763809Y-100217619D01*
X204906666Y-100455714D02*
X204906666Y-101122380D01*
X205335238Y-100455714D02*
X205335238Y-100979523D01*
X205287619Y-101074761D01*
X205192380Y-101122380D01*
X205049523Y-101122380D01*
X204954285Y-101074761D01*
X204906666Y-101027142D01*
X204573333Y-100455714D02*
X204192380Y-100455714D01*
X204430476Y-100122380D02*
X204430476Y-100979523D01*
X204382857Y-101074761D01*
X204287619Y-101122380D01*
X204192380Y-101122380D01*
X203097142Y-101122380D02*
X203097142Y-100122380D01*
X202620952Y-100455714D02*
X202620952Y-101122380D01*
X202620952Y-100550952D02*
X202573333Y-100503333D01*
X202478095Y-100455714D01*
X202335238Y-100455714D01*
X202240000Y-100503333D01*
X202192380Y-100598571D01*
X202192380Y-101122380D01*
X201763809Y-101074761D02*
X201668571Y-101122380D01*
X201478095Y-101122380D01*
X201382857Y-101074761D01*
X201335238Y-100979523D01*
X201335238Y-100931904D01*
X201382857Y-100836666D01*
X201478095Y-100789047D01*
X201620952Y-100789047D01*
X201716190Y-100741428D01*
X201763809Y-100646190D01*
X201763809Y-100598571D01*
X201716190Y-100503333D01*
X201620952Y-100455714D01*
X201478095Y-100455714D01*
X201382857Y-100503333D01*
X200906666Y-101122380D02*
X200906666Y-100455714D01*
X200906666Y-100122380D02*
X200954285Y-100170000D01*
X200906666Y-100217619D01*
X200859047Y-100170000D01*
X200906666Y-100122380D01*
X200906666Y-100217619D01*
X200001904Y-101122380D02*
X200001904Y-100122380D01*
X200001904Y-101074761D02*
X200097142Y-101122380D01*
X200287619Y-101122380D01*
X200382857Y-101074761D01*
X200430476Y-101027142D01*
X200478095Y-100931904D01*
X200478095Y-100646190D01*
X200430476Y-100550952D01*
X200382857Y-100503333D01*
X200287619Y-100455714D01*
X200097142Y-100455714D01*
X200001904Y-100503333D01*
X199144761Y-101074761D02*
X199240000Y-101122380D01*
X199430476Y-101122380D01*
X199525714Y-101074761D01*
X199573333Y-100979523D01*
X199573333Y-100598571D01*
X199525714Y-100503333D01*
X199430476Y-100455714D01*
X199240000Y-100455714D01*
X199144761Y-100503333D01*
X199097142Y-100598571D01*
X199097142Y-100693809D01*
X199573333Y-100789047D01*
X179893809Y-101077142D02*
X179941428Y-101124761D01*
X180084285Y-101172380D01*
X180179523Y-101172380D01*
X180322380Y-101124761D01*
X180417619Y-101029523D01*
X180465238Y-100934285D01*
X180512857Y-100743809D01*
X180512857Y-100600952D01*
X180465238Y-100410476D01*
X180417619Y-100315238D01*
X180322380Y-100220000D01*
X180179523Y-100172380D01*
X180084285Y-100172380D01*
X179941428Y-100220000D01*
X179893809Y-100267619D01*
X179036666Y-100505714D02*
X179036666Y-101172380D01*
X179465238Y-100505714D02*
X179465238Y-101029523D01*
X179417619Y-101124761D01*
X179322380Y-101172380D01*
X179179523Y-101172380D01*
X179084285Y-101124761D01*
X179036666Y-101077142D01*
X178703333Y-100505714D02*
X178322380Y-100505714D01*
X178560476Y-100172380D02*
X178560476Y-101029523D01*
X178512857Y-101124761D01*
X178417619Y-101172380D01*
X178322380Y-101172380D01*
X177227142Y-101172380D02*
X177227142Y-100172380D01*
X176750952Y-100505714D02*
X176750952Y-101172380D01*
X176750952Y-100600952D02*
X176703333Y-100553333D01*
X176608095Y-100505714D01*
X176465238Y-100505714D01*
X176370000Y-100553333D01*
X176322380Y-100648571D01*
X176322380Y-101172380D01*
X175893809Y-101124761D02*
X175798571Y-101172380D01*
X175608095Y-101172380D01*
X175512857Y-101124761D01*
X175465238Y-101029523D01*
X175465238Y-100981904D01*
X175512857Y-100886666D01*
X175608095Y-100839047D01*
X175750952Y-100839047D01*
X175846190Y-100791428D01*
X175893809Y-100696190D01*
X175893809Y-100648571D01*
X175846190Y-100553333D01*
X175750952Y-100505714D01*
X175608095Y-100505714D01*
X175512857Y-100553333D01*
X175036666Y-101172380D02*
X175036666Y-100505714D01*
X175036666Y-100172380D02*
X175084285Y-100220000D01*
X175036666Y-100267619D01*
X174989047Y-100220000D01*
X175036666Y-100172380D01*
X175036666Y-100267619D01*
X174131904Y-101172380D02*
X174131904Y-100172380D01*
X174131904Y-101124761D02*
X174227142Y-101172380D01*
X174417619Y-101172380D01*
X174512857Y-101124761D01*
X174560476Y-101077142D01*
X174608095Y-100981904D01*
X174608095Y-100696190D01*
X174560476Y-100600952D01*
X174512857Y-100553333D01*
X174417619Y-100505714D01*
X174227142Y-100505714D01*
X174131904Y-100553333D01*
X173274761Y-101124761D02*
X173370000Y-101172380D01*
X173560476Y-101172380D01*
X173655714Y-101124761D01*
X173703333Y-101029523D01*
X173703333Y-100648571D01*
X173655714Y-100553333D01*
X173560476Y-100505714D01*
X173370000Y-100505714D01*
X173274761Y-100553333D01*
X173227142Y-100648571D01*
X173227142Y-100743809D01*
X173703333Y-100839047D01*
X145503809Y-101077142D02*
X145551428Y-101124761D01*
X145694285Y-101172380D01*
X145789523Y-101172380D01*
X145932380Y-101124761D01*
X146027619Y-101029523D01*
X146075238Y-100934285D01*
X146122857Y-100743809D01*
X146122857Y-100600952D01*
X146075238Y-100410476D01*
X146027619Y-100315238D01*
X145932380Y-100220000D01*
X145789523Y-100172380D01*
X145694285Y-100172380D01*
X145551428Y-100220000D01*
X145503809Y-100267619D01*
X144646666Y-100505714D02*
X144646666Y-101172380D01*
X145075238Y-100505714D02*
X145075238Y-101029523D01*
X145027619Y-101124761D01*
X144932380Y-101172380D01*
X144789523Y-101172380D01*
X144694285Y-101124761D01*
X144646666Y-101077142D01*
X144313333Y-100505714D02*
X143932380Y-100505714D01*
X144170476Y-100172380D02*
X144170476Y-101029523D01*
X144122857Y-101124761D01*
X144027619Y-101172380D01*
X143932380Y-101172380D01*
X142837142Y-101172380D02*
X142837142Y-100172380D01*
X142360952Y-100505714D02*
X142360952Y-101172380D01*
X142360952Y-100600952D02*
X142313333Y-100553333D01*
X142218095Y-100505714D01*
X142075238Y-100505714D01*
X141980000Y-100553333D01*
X141932380Y-100648571D01*
X141932380Y-101172380D01*
X141503809Y-101124761D02*
X141408571Y-101172380D01*
X141218095Y-101172380D01*
X141122857Y-101124761D01*
X141075238Y-101029523D01*
X141075238Y-100981904D01*
X141122857Y-100886666D01*
X141218095Y-100839047D01*
X141360952Y-100839047D01*
X141456190Y-100791428D01*
X141503809Y-100696190D01*
X141503809Y-100648571D01*
X141456190Y-100553333D01*
X141360952Y-100505714D01*
X141218095Y-100505714D01*
X141122857Y-100553333D01*
X140646666Y-101172380D02*
X140646666Y-100505714D01*
X140646666Y-100172380D02*
X140694285Y-100220000D01*
X140646666Y-100267619D01*
X140599047Y-100220000D01*
X140646666Y-100172380D01*
X140646666Y-100267619D01*
X139741904Y-101172380D02*
X139741904Y-100172380D01*
X139741904Y-101124761D02*
X139837142Y-101172380D01*
X140027619Y-101172380D01*
X140122857Y-101124761D01*
X140170476Y-101077142D01*
X140218095Y-100981904D01*
X140218095Y-100696190D01*
X140170476Y-100600952D01*
X140122857Y-100553333D01*
X140027619Y-100505714D01*
X139837142Y-100505714D01*
X139741904Y-100553333D01*
X138884761Y-101124761D02*
X138980000Y-101172380D01*
X139170476Y-101172380D01*
X139265714Y-101124761D01*
X139313333Y-101029523D01*
X139313333Y-100648571D01*
X139265714Y-100553333D01*
X139170476Y-100505714D01*
X138980000Y-100505714D01*
X138884761Y-100553333D01*
X138837142Y-100648571D01*
X138837142Y-100743809D01*
X139313333Y-100839047D01*
X120563809Y-101337142D02*
X120611428Y-101384761D01*
X120754285Y-101432380D01*
X120849523Y-101432380D01*
X120992380Y-101384761D01*
X121087619Y-101289523D01*
X121135238Y-101194285D01*
X121182857Y-101003809D01*
X121182857Y-100860952D01*
X121135238Y-100670476D01*
X121087619Y-100575238D01*
X120992380Y-100480000D01*
X120849523Y-100432380D01*
X120754285Y-100432380D01*
X120611428Y-100480000D01*
X120563809Y-100527619D01*
X119706666Y-100765714D02*
X119706666Y-101432380D01*
X120135238Y-100765714D02*
X120135238Y-101289523D01*
X120087619Y-101384761D01*
X119992380Y-101432380D01*
X119849523Y-101432380D01*
X119754285Y-101384761D01*
X119706666Y-101337142D01*
X119373333Y-100765714D02*
X118992380Y-100765714D01*
X119230476Y-100432380D02*
X119230476Y-101289523D01*
X119182857Y-101384761D01*
X119087619Y-101432380D01*
X118992380Y-101432380D01*
X117897142Y-101432380D02*
X117897142Y-100432380D01*
X117420952Y-100765714D02*
X117420952Y-101432380D01*
X117420952Y-100860952D02*
X117373333Y-100813333D01*
X117278095Y-100765714D01*
X117135238Y-100765714D01*
X117040000Y-100813333D01*
X116992380Y-100908571D01*
X116992380Y-101432380D01*
X116563809Y-101384761D02*
X116468571Y-101432380D01*
X116278095Y-101432380D01*
X116182857Y-101384761D01*
X116135238Y-101289523D01*
X116135238Y-101241904D01*
X116182857Y-101146666D01*
X116278095Y-101099047D01*
X116420952Y-101099047D01*
X116516190Y-101051428D01*
X116563809Y-100956190D01*
X116563809Y-100908571D01*
X116516190Y-100813333D01*
X116420952Y-100765714D01*
X116278095Y-100765714D01*
X116182857Y-100813333D01*
X115706666Y-101432380D02*
X115706666Y-100765714D01*
X115706666Y-100432380D02*
X115754285Y-100480000D01*
X115706666Y-100527619D01*
X115659047Y-100480000D01*
X115706666Y-100432380D01*
X115706666Y-100527619D01*
X114801904Y-101432380D02*
X114801904Y-100432380D01*
X114801904Y-101384761D02*
X114897142Y-101432380D01*
X115087619Y-101432380D01*
X115182857Y-101384761D01*
X115230476Y-101337142D01*
X115278095Y-101241904D01*
X115278095Y-100956190D01*
X115230476Y-100860952D01*
X115182857Y-100813333D01*
X115087619Y-100765714D01*
X114897142Y-100765714D01*
X114801904Y-100813333D01*
X113944761Y-101384761D02*
X114040000Y-101432380D01*
X114230476Y-101432380D01*
X114325714Y-101384761D01*
X114373333Y-101289523D01*
X114373333Y-100908571D01*
X114325714Y-100813333D01*
X114230476Y-100765714D01*
X114040000Y-100765714D01*
X113944761Y-100813333D01*
X113897142Y-100908571D01*
X113897142Y-101003809D01*
X114373333Y-101099047D01*
D11*
X163495000Y-66845000D02*
G75*
G03*
X163495000Y-66845000I-100000J0D01*
G01*
D12*
X166395000Y-60045000D02*
X175695000Y-60045000D01*
X166395000Y-60045000D02*
X154395000Y-60045000D01*
X154395000Y-60045000D02*
X154395000Y-63745000D01*
X154395000Y-44995000D02*
X154395000Y-60045000D01*
X166395000Y-44995000D02*
X154395000Y-44995000D01*
X166395000Y-60045000D02*
X166395000Y-44995000D01*
X166395000Y-63745000D02*
X166395000Y-60045000D01*
X154395000Y-63745000D02*
X166395000Y-63745000D01*
X187545000Y-112075000D02*
X187545000Y-124075000D01*
X187545000Y-124075000D02*
X191245000Y-124075000D01*
X191245000Y-124075000D02*
X206295000Y-124075000D01*
X206295000Y-124075000D02*
X206295000Y-112075000D01*
X206295000Y-112075000D02*
X191245000Y-112075000D01*
X191245000Y-112075000D02*
X187545000Y-112075000D01*
X191245000Y-124075000D02*
X191245000Y-112075000D01*
X191245000Y-124075000D02*
X191245000Y-133375000D01*
D11*
X184545000Y-121075000D02*
G75*
G03*
X184545000Y-121075000I-100000J0D01*
G01*
X197945000Y-66845000D02*
G75*
G03*
X197945000Y-66845000I-100000J0D01*
G01*
D12*
X200845000Y-60045000D02*
X210145000Y-60045000D01*
X200845000Y-60045000D02*
X188845000Y-60045000D01*
X188845000Y-60045000D02*
X188845000Y-63745000D01*
X188845000Y-44995000D02*
X188845000Y-60045000D01*
X200845000Y-44995000D02*
X188845000Y-44995000D01*
X200845000Y-60045000D02*
X200845000Y-44995000D01*
X200845000Y-63745000D02*
X200845000Y-60045000D01*
X188845000Y-63745000D02*
X200845000Y-63745000D01*
X119695000Y-63745000D02*
X131695000Y-63745000D01*
X131695000Y-63745000D02*
X131695000Y-60045000D01*
X131695000Y-60045000D02*
X131695000Y-44995000D01*
X131695000Y-44995000D02*
X119695000Y-44995000D01*
X119695000Y-44995000D02*
X119695000Y-60045000D01*
X119695000Y-60045000D02*
X119695000Y-63745000D01*
X131695000Y-60045000D02*
X119695000Y-60045000D01*
X131695000Y-60045000D02*
X140995000Y-60045000D01*
D11*
X128795000Y-66845000D02*
G75*
G03*
X128795000Y-66845000I-100000J0D01*
G01*
M02*
