G04 #@! TF.GenerationSoftware,KiCad,Pcbnew,5.1.9-73d0e3b20d~88~ubuntu20.04.1*
G04 #@! TF.CreationDate,2021-06-09T12:04:27-03:00*
G04 #@! TF.ProjectId,adaptador_db15_usb,61646170-7461-4646-9f72-5f646231355f,rev?*
G04 #@! TF.SameCoordinates,Original*
G04 #@! TF.FileFunction,Profile,NP*
%FSLAX46Y46*%
G04 Gerber Fmt 4.6, Leading zero omitted, Abs format (unit mm)*
G04 Created by KiCad (PCBNEW 5.1.9-73d0e3b20d~88~ubuntu20.04.1) date 2021-06-09 12:04:27*
%MOMM*%
%LPD*%
G01*
G04 APERTURE LIST*
G04 #@! TA.AperFunction,Profile*
%ADD10C,0.150000*%
G04 #@! TD*
G04 APERTURE END LIST*
D10*
X148960000Y-136890000D02*
X148960000Y-119410000D01*
X178570000Y-98900000D02*
X193570000Y-98900000D01*
X152560000Y-119410000D02*
X152560000Y-136890000D01*
X193570000Y-98900000D02*
X193570000Y-102500000D01*
X148960000Y-118400000D02*
X148960000Y-103400000D01*
X148960000Y-103400000D02*
X152560000Y-103400000D01*
X159470000Y-102500000D02*
X141970000Y-102500000D01*
X144470000Y-98900000D02*
X159470000Y-98900000D01*
X193570000Y-102500000D02*
X178570000Y-102500000D01*
X152560000Y-103400000D02*
X152560000Y-118400000D01*
X152560000Y-136890000D02*
X148960000Y-136890000D01*
X159470000Y-98900000D02*
X159470000Y-102500000D01*
X148960000Y-119410000D02*
X152560000Y-119410000D01*
X152560000Y-118400000D02*
X148960000Y-118400000D01*
X126970000Y-98900000D02*
X144470000Y-98900000D01*
X126270000Y-98900000D02*
X126270000Y-102500000D01*
X126970000Y-102500000D02*
X126970000Y-98900000D01*
X111270000Y-98900000D02*
X126270000Y-98900000D01*
X126270000Y-102500000D02*
X111270000Y-102500000D01*
X141970000Y-102500000D02*
X126970000Y-102500000D01*
X111270000Y-102500000D02*
X111270000Y-98900000D01*
X160170000Y-98900000D02*
X178570000Y-98900000D01*
X160170000Y-102500000D02*
X160170000Y-98900000D01*
X178570000Y-102500000D02*
X160170000Y-102500000D01*
X194270000Y-98900000D02*
X209270000Y-98900000D01*
X194270000Y-102500000D02*
X194270000Y-98900000D01*
X209270000Y-102500000D02*
X194270000Y-102500000D01*
X209270000Y-98900000D02*
X209270000Y-102500000D01*
X209270000Y-136890000D02*
X179730000Y-136890000D01*
X179730000Y-136890000D02*
X179730000Y-133590000D01*
X179030000Y-133590000D02*
X179030000Y-136890000D01*
X179030000Y-136890000D02*
X154030000Y-136890000D01*
X154030000Y-136890000D02*
X154030000Y-133590000D01*
X154030000Y-133590000D02*
X179030000Y-133590000D01*
X179730000Y-133590000D02*
X209270000Y-133590000D01*
X209270000Y-133590000D02*
X209270000Y-136890000D01*
X175950000Y-67720000D02*
X179250000Y-67720000D01*
X179250000Y-97720000D02*
X175950000Y-97720000D01*
X179250000Y-67720000D02*
X179250000Y-97720000D01*
X175950000Y-97720000D02*
X175950000Y-67720000D01*
X144690000Y-97690000D02*
X141390000Y-97690000D01*
X141390000Y-97690000D02*
X141390000Y-67690000D01*
X141390000Y-67690000D02*
X144690000Y-67690000D01*
X144690000Y-67690000D02*
X144690000Y-97690000D01*
X144690000Y-67020000D02*
X141390000Y-67020000D01*
X141390000Y-67020000D02*
X141390000Y-42020000D01*
X141390000Y-42020000D02*
X144690000Y-42020000D01*
X144690000Y-42020000D02*
X144690000Y-67020000D01*
X175950000Y-67020000D02*
X175950000Y-42020000D01*
X179250000Y-67020000D02*
X175950000Y-67020000D01*
X179250000Y-42020000D02*
X179250000Y-67020000D01*
X175950000Y-42020000D02*
X179250000Y-42020000D01*
X175820000Y-41020000D02*
X179420000Y-41020000D01*
X141120000Y-41020000D02*
X144970000Y-41020000D01*
X110270000Y-141020000D02*
X110270000Y-98745000D01*
X210270000Y-141020000D02*
X110270000Y-141020000D01*
X210270000Y-133500000D02*
X210270000Y-141020000D01*
X210270000Y-98745000D02*
X210270000Y-102650000D01*
X210270000Y-133500000D02*
X210270000Y-125300000D01*
X210270000Y-110790000D02*
X210270000Y-102650000D01*
X153110000Y-41020000D02*
X153110000Y-54420000D01*
X167620000Y-41020000D02*
X167620000Y-54420000D01*
X175820000Y-41020000D02*
X167620000Y-41020000D01*
X153110000Y-54420000D02*
X154260000Y-54420000D01*
X166470000Y-60045000D02*
X166470000Y-54420000D01*
X154260000Y-60045000D02*
X154260000Y-54420000D01*
X167620000Y-54420000D02*
X166470000Y-54420000D01*
X154260000Y-60045000D02*
X166470000Y-60045000D01*
X153110000Y-41020000D02*
X144970000Y-41020000D01*
X210270000Y-125300000D02*
X196870000Y-125300000D01*
X196870000Y-110790000D02*
X196870000Y-111940000D01*
X191245000Y-124150000D02*
X196870000Y-124150000D01*
X191245000Y-111940000D02*
X196870000Y-111940000D01*
X191245000Y-111940000D02*
X191245000Y-124150000D01*
X196870000Y-125300000D02*
X196870000Y-124150000D01*
X210270000Y-110790000D02*
X196870000Y-110790000D01*
X202070000Y-54420000D02*
X200920000Y-54420000D01*
X187560000Y-41020000D02*
X187560000Y-54420000D01*
X200920000Y-60045000D02*
X200920000Y-54420000D01*
X210270000Y-60045000D02*
X210270000Y-98745000D01*
X188710000Y-60045000D02*
X188710000Y-54420000D01*
X187560000Y-41020000D02*
X179420000Y-41020000D01*
X188710000Y-60045000D02*
X200920000Y-60045000D01*
X210270000Y-60045000D02*
X210270000Y-56040000D01*
X202070000Y-41020000D02*
X202070000Y-54420000D01*
X187560000Y-54420000D02*
X188710000Y-54420000D01*
X210270000Y-41020000D02*
X202070000Y-41020000D01*
X210270000Y-56040000D02*
X210270000Y-41020000D01*
X132920000Y-54420000D02*
X131770000Y-54420000D01*
X118410000Y-54420000D02*
X119560000Y-54420000D01*
X118410000Y-41020000D02*
X118410000Y-54420000D01*
X132920000Y-41020000D02*
X132920000Y-54420000D01*
X141120000Y-41020000D02*
X132920000Y-41020000D01*
X110270000Y-56040000D02*
X110270000Y-41020000D01*
X131770000Y-60045000D02*
X131770000Y-54420000D01*
X119560000Y-60045000D02*
X131770000Y-60045000D01*
X110270000Y-56040000D02*
X110270000Y-60045000D01*
X118410000Y-41020000D02*
X110270000Y-41020000D01*
X119560000Y-60045000D02*
X119560000Y-54420000D01*
X110270000Y-98745000D02*
X110270000Y-60045000D01*
M02*
