G04 #@! TF.GenerationSoftware,KiCad,Pcbnew,5.1.9-73d0e3b20d~88~ubuntu20.04.1*
G04 #@! TF.CreationDate,2021-06-09T12:04:27-03:00*
G04 #@! TF.ProjectId,adaptador_db15_usb,61646170-7461-4646-9f72-5f646231355f,rev?*
G04 #@! TF.SameCoordinates,Original*
G04 #@! TF.FileFunction,Legend,Top*
G04 #@! TF.FilePolarity,Positive*
%FSLAX46Y46*%
G04 Gerber Fmt 4.6, Leading zero omitted, Abs format (unit mm)*
G04 Created by KiCad (PCBNEW 5.1.9-73d0e3b20d~88~ubuntu20.04.1) date 2021-06-09 12:04:27*
%MOMM*%
%LPD*%
G01*
G04 APERTURE LIST*
%ADD10C,0.100000*%
%ADD11C,0.127000*%
%ADD12C,0.200000*%
%ADD13C,0.120000*%
%ADD14C,0.150000*%
G04 APERTURE END LIST*
D10*
X193812857Y-105258809D02*
X193812857Y-104854047D01*
X193789047Y-104806428D01*
X193765238Y-104782619D01*
X193717619Y-104758809D01*
X193622380Y-104758809D01*
X193574761Y-104782619D01*
X193550952Y-104806428D01*
X193527142Y-104854047D01*
X193527142Y-105258809D01*
X193312857Y-104782619D02*
X193241428Y-104758809D01*
X193122380Y-104758809D01*
X193074761Y-104782619D01*
X193050952Y-104806428D01*
X193027142Y-104854047D01*
X193027142Y-104901666D01*
X193050952Y-104949285D01*
X193074761Y-104973095D01*
X193122380Y-104996904D01*
X193217619Y-105020714D01*
X193265238Y-105044523D01*
X193289047Y-105068333D01*
X193312857Y-105115952D01*
X193312857Y-105163571D01*
X193289047Y-105211190D01*
X193265238Y-105235000D01*
X193217619Y-105258809D01*
X193098571Y-105258809D01*
X193027142Y-105235000D01*
X192646190Y-105020714D02*
X192574761Y-104996904D01*
X192550952Y-104973095D01*
X192527142Y-104925476D01*
X192527142Y-104854047D01*
X192550952Y-104806428D01*
X192574761Y-104782619D01*
X192622380Y-104758809D01*
X192812857Y-104758809D01*
X192812857Y-105258809D01*
X192646190Y-105258809D01*
X192598571Y-105235000D01*
X192574761Y-105211190D01*
X192550952Y-105163571D01*
X192550952Y-105115952D01*
X192574761Y-105068333D01*
X192598571Y-105044523D01*
X192646190Y-105020714D01*
X192812857Y-105020714D01*
X191931904Y-104949285D02*
X191550952Y-104949285D01*
X190931904Y-104758809D02*
X190931904Y-105258809D01*
X190812857Y-105258809D01*
X190741428Y-105235000D01*
X190693809Y-105187380D01*
X190670000Y-105139761D01*
X190646190Y-105044523D01*
X190646190Y-104973095D01*
X190670000Y-104877857D01*
X190693809Y-104830238D01*
X190741428Y-104782619D01*
X190812857Y-104758809D01*
X190931904Y-104758809D01*
X190265238Y-105020714D02*
X190193809Y-104996904D01*
X190170000Y-104973095D01*
X190146190Y-104925476D01*
X190146190Y-104854047D01*
X190170000Y-104806428D01*
X190193809Y-104782619D01*
X190241428Y-104758809D01*
X190431904Y-104758809D01*
X190431904Y-105258809D01*
X190265238Y-105258809D01*
X190217619Y-105235000D01*
X190193809Y-105211190D01*
X190170000Y-105163571D01*
X190170000Y-105115952D01*
X190193809Y-105068333D01*
X190217619Y-105044523D01*
X190265238Y-105020714D01*
X190431904Y-105020714D01*
X189670000Y-104758809D02*
X189955714Y-104758809D01*
X189812857Y-104758809D02*
X189812857Y-105258809D01*
X189860476Y-105187380D01*
X189908095Y-105139761D01*
X189955714Y-105115952D01*
X189217619Y-105258809D02*
X189455714Y-105258809D01*
X189479523Y-105020714D01*
X189455714Y-105044523D01*
X189408095Y-105068333D01*
X189289047Y-105068333D01*
X189241428Y-105044523D01*
X189217619Y-105020714D01*
X189193809Y-104973095D01*
X189193809Y-104854047D01*
X189217619Y-104806428D01*
X189241428Y-104782619D01*
X189289047Y-104758809D01*
X189408095Y-104758809D01*
X189455714Y-104782619D01*
X189479523Y-104806428D01*
X188622380Y-104901666D02*
X188384285Y-104901666D01*
X188670000Y-104758809D02*
X188503333Y-105258809D01*
X188336666Y-104758809D01*
X187955714Y-104758809D02*
X187955714Y-105258809D01*
X187955714Y-104782619D02*
X188003333Y-104758809D01*
X188098571Y-104758809D01*
X188146190Y-104782619D01*
X188170000Y-104806428D01*
X188193809Y-104854047D01*
X188193809Y-104996904D01*
X188170000Y-105044523D01*
X188146190Y-105068333D01*
X188098571Y-105092142D01*
X188003333Y-105092142D01*
X187955714Y-105068333D01*
X187503333Y-104758809D02*
X187503333Y-105020714D01*
X187527142Y-105068333D01*
X187574761Y-105092142D01*
X187670000Y-105092142D01*
X187717619Y-105068333D01*
X187503333Y-104782619D02*
X187550952Y-104758809D01*
X187670000Y-104758809D01*
X187717619Y-104782619D01*
X187741428Y-104830238D01*
X187741428Y-104877857D01*
X187717619Y-104925476D01*
X187670000Y-104949285D01*
X187550952Y-104949285D01*
X187503333Y-104973095D01*
X187265238Y-105092142D02*
X187265238Y-104592142D01*
X187265238Y-105068333D02*
X187217619Y-105092142D01*
X187122380Y-105092142D01*
X187074761Y-105068333D01*
X187050952Y-105044523D01*
X187027142Y-104996904D01*
X187027142Y-104854047D01*
X187050952Y-104806428D01*
X187074761Y-104782619D01*
X187122380Y-104758809D01*
X187217619Y-104758809D01*
X187265238Y-104782619D01*
X186884285Y-105092142D02*
X186693809Y-105092142D01*
X186812857Y-105258809D02*
X186812857Y-104830238D01*
X186789047Y-104782619D01*
X186741428Y-104758809D01*
X186693809Y-104758809D01*
X186336666Y-104782619D02*
X186384285Y-104758809D01*
X186479523Y-104758809D01*
X186527142Y-104782619D01*
X186550952Y-104830238D01*
X186550952Y-105020714D01*
X186527142Y-105068333D01*
X186479523Y-105092142D01*
X186384285Y-105092142D01*
X186336666Y-105068333D01*
X186312857Y-105020714D01*
X186312857Y-104973095D01*
X186550952Y-104925476D01*
X186098571Y-104758809D02*
X186098571Y-105092142D01*
X186098571Y-104996904D02*
X186074761Y-105044523D01*
X186050952Y-105068333D01*
X186003333Y-105092142D01*
X185955714Y-105092142D01*
X192920000Y-103908809D02*
X192920000Y-104408809D01*
X192586666Y-104408809D02*
X192491428Y-104408809D01*
X192443809Y-104385000D01*
X192396190Y-104337380D01*
X192372380Y-104242142D01*
X192372380Y-104075476D01*
X192396190Y-103980238D01*
X192443809Y-103932619D01*
X192491428Y-103908809D01*
X192586666Y-103908809D01*
X192634285Y-103932619D01*
X192681904Y-103980238D01*
X192705714Y-104075476D01*
X192705714Y-104242142D01*
X192681904Y-104337380D01*
X192634285Y-104385000D01*
X192586666Y-104408809D01*
X192229523Y-104408809D02*
X191943809Y-104408809D01*
X192086666Y-103908809D02*
X192086666Y-104408809D01*
X191396190Y-104099285D02*
X191015238Y-104099285D01*
X190253333Y-104408809D02*
X190253333Y-104051666D01*
X190277142Y-103980238D01*
X190324761Y-103932619D01*
X190396190Y-103908809D01*
X190443809Y-103908809D01*
X189800952Y-104242142D02*
X189800952Y-103908809D01*
X190015238Y-104242142D02*
X190015238Y-103980238D01*
X189991428Y-103932619D01*
X189943809Y-103908809D01*
X189872380Y-103908809D01*
X189824761Y-103932619D01*
X189800952Y-103956428D01*
X189562857Y-104242142D02*
X189562857Y-103908809D01*
X189562857Y-104194523D02*
X189539047Y-104218333D01*
X189491428Y-104242142D01*
X189420000Y-104242142D01*
X189372380Y-104218333D01*
X189348571Y-104170714D01*
X189348571Y-103908809D01*
X188753333Y-104432619D02*
X189181904Y-103789761D01*
X188610476Y-104361190D02*
X188586666Y-104385000D01*
X188539047Y-104408809D01*
X188420000Y-104408809D01*
X188372380Y-104385000D01*
X188348571Y-104361190D01*
X188324761Y-104313571D01*
X188324761Y-104265952D01*
X188348571Y-104194523D01*
X188634285Y-103908809D01*
X188324761Y-103908809D01*
X188015238Y-104408809D02*
X187967619Y-104408809D01*
X187920000Y-104385000D01*
X187896190Y-104361190D01*
X187872380Y-104313571D01*
X187848571Y-104218333D01*
X187848571Y-104099285D01*
X187872380Y-104004047D01*
X187896190Y-103956428D01*
X187920000Y-103932619D01*
X187967619Y-103908809D01*
X188015238Y-103908809D01*
X188062857Y-103932619D01*
X188086666Y-103956428D01*
X188110476Y-104004047D01*
X188134285Y-104099285D01*
X188134285Y-104218333D01*
X188110476Y-104313571D01*
X188086666Y-104361190D01*
X188062857Y-104385000D01*
X188015238Y-104408809D01*
X187658095Y-104361190D02*
X187634285Y-104385000D01*
X187586666Y-104408809D01*
X187467619Y-104408809D01*
X187420000Y-104385000D01*
X187396190Y-104361190D01*
X187372380Y-104313571D01*
X187372380Y-104265952D01*
X187396190Y-104194523D01*
X187681904Y-103908809D01*
X187372380Y-103908809D01*
X186896190Y-103908809D02*
X187181904Y-103908809D01*
X187039047Y-103908809D02*
X187039047Y-104408809D01*
X187086666Y-104337380D01*
X187134285Y-104289761D01*
X187181904Y-104265952D01*
X181768809Y-57367142D02*
X181364047Y-57367142D01*
X181316428Y-57390952D01*
X181292619Y-57414761D01*
X181268809Y-57462380D01*
X181268809Y-57557619D01*
X181292619Y-57605238D01*
X181316428Y-57629047D01*
X181364047Y-57652857D01*
X181768809Y-57652857D01*
X181292619Y-57867142D02*
X181268809Y-57938571D01*
X181268809Y-58057619D01*
X181292619Y-58105238D01*
X181316428Y-58129047D01*
X181364047Y-58152857D01*
X181411666Y-58152857D01*
X181459285Y-58129047D01*
X181483095Y-58105238D01*
X181506904Y-58057619D01*
X181530714Y-57962380D01*
X181554523Y-57914761D01*
X181578333Y-57890952D01*
X181625952Y-57867142D01*
X181673571Y-57867142D01*
X181721190Y-57890952D01*
X181745000Y-57914761D01*
X181768809Y-57962380D01*
X181768809Y-58081428D01*
X181745000Y-58152857D01*
X181530714Y-58533809D02*
X181506904Y-58605238D01*
X181483095Y-58629047D01*
X181435476Y-58652857D01*
X181364047Y-58652857D01*
X181316428Y-58629047D01*
X181292619Y-58605238D01*
X181268809Y-58557619D01*
X181268809Y-58367142D01*
X181768809Y-58367142D01*
X181768809Y-58533809D01*
X181745000Y-58581428D01*
X181721190Y-58605238D01*
X181673571Y-58629047D01*
X181625952Y-58629047D01*
X181578333Y-58605238D01*
X181554523Y-58581428D01*
X181530714Y-58533809D01*
X181530714Y-58367142D01*
X181459285Y-59248095D02*
X181459285Y-59629047D01*
X181268809Y-60248095D02*
X181768809Y-60248095D01*
X181768809Y-60367142D01*
X181745000Y-60438571D01*
X181697380Y-60486190D01*
X181649761Y-60510000D01*
X181554523Y-60533809D01*
X181483095Y-60533809D01*
X181387857Y-60510000D01*
X181340238Y-60486190D01*
X181292619Y-60438571D01*
X181268809Y-60367142D01*
X181268809Y-60248095D01*
X181530714Y-60914761D02*
X181506904Y-60986190D01*
X181483095Y-61010000D01*
X181435476Y-61033809D01*
X181364047Y-61033809D01*
X181316428Y-61010000D01*
X181292619Y-60986190D01*
X181268809Y-60938571D01*
X181268809Y-60748095D01*
X181768809Y-60748095D01*
X181768809Y-60914761D01*
X181745000Y-60962380D01*
X181721190Y-60986190D01*
X181673571Y-61010000D01*
X181625952Y-61010000D01*
X181578333Y-60986190D01*
X181554523Y-60962380D01*
X181530714Y-60914761D01*
X181530714Y-60748095D01*
X181268809Y-61510000D02*
X181268809Y-61224285D01*
X181268809Y-61367142D02*
X181768809Y-61367142D01*
X181697380Y-61319523D01*
X181649761Y-61271904D01*
X181625952Y-61224285D01*
X181768809Y-61962380D02*
X181768809Y-61724285D01*
X181530714Y-61700476D01*
X181554523Y-61724285D01*
X181578333Y-61771904D01*
X181578333Y-61890952D01*
X181554523Y-61938571D01*
X181530714Y-61962380D01*
X181483095Y-61986190D01*
X181364047Y-61986190D01*
X181316428Y-61962380D01*
X181292619Y-61938571D01*
X181268809Y-61890952D01*
X181268809Y-61771904D01*
X181292619Y-61724285D01*
X181316428Y-61700476D01*
X181411666Y-62557619D02*
X181411666Y-62795714D01*
X181268809Y-62509999D02*
X181768809Y-62676666D01*
X181268809Y-62843333D01*
X181268809Y-63224285D02*
X181768809Y-63224285D01*
X181292619Y-63224285D02*
X181268809Y-63176666D01*
X181268809Y-63081428D01*
X181292619Y-63033809D01*
X181316428Y-63009999D01*
X181364047Y-62986190D01*
X181506904Y-62986190D01*
X181554523Y-63009999D01*
X181578333Y-63033809D01*
X181602142Y-63081428D01*
X181602142Y-63176666D01*
X181578333Y-63224285D01*
X181268809Y-63676666D02*
X181530714Y-63676666D01*
X181578333Y-63652857D01*
X181602142Y-63605238D01*
X181602142Y-63509999D01*
X181578333Y-63462380D01*
X181292619Y-63676666D02*
X181268809Y-63629047D01*
X181268809Y-63509999D01*
X181292619Y-63462380D01*
X181340238Y-63438571D01*
X181387857Y-63438571D01*
X181435476Y-63462380D01*
X181459285Y-63509999D01*
X181459285Y-63629047D01*
X181483095Y-63676666D01*
X181602142Y-63914761D02*
X181102142Y-63914761D01*
X181578333Y-63914761D02*
X181602142Y-63962380D01*
X181602142Y-64057619D01*
X181578333Y-64105238D01*
X181554523Y-64129047D01*
X181506904Y-64152857D01*
X181364047Y-64152857D01*
X181316428Y-64129047D01*
X181292619Y-64105238D01*
X181268809Y-64057619D01*
X181268809Y-63962380D01*
X181292619Y-63914761D01*
X181602142Y-64295714D02*
X181602142Y-64486190D01*
X181768809Y-64367142D02*
X181340238Y-64367142D01*
X181292619Y-64390952D01*
X181268809Y-64438571D01*
X181268809Y-64486190D01*
X181292619Y-64843333D02*
X181268809Y-64795714D01*
X181268809Y-64700476D01*
X181292619Y-64652857D01*
X181340238Y-64629047D01*
X181530714Y-64629047D01*
X181578333Y-64652857D01*
X181602142Y-64700476D01*
X181602142Y-64795714D01*
X181578333Y-64843333D01*
X181530714Y-64867142D01*
X181483095Y-64867142D01*
X181435476Y-64629047D01*
X181268809Y-65081428D02*
X181602142Y-65081428D01*
X181506904Y-65081428D02*
X181554523Y-65105238D01*
X181578333Y-65129047D01*
X181602142Y-65176666D01*
X181602142Y-65224285D01*
X180418809Y-58260000D02*
X180918809Y-58260000D01*
X180918809Y-58593333D02*
X180918809Y-58688571D01*
X180895000Y-58736190D01*
X180847380Y-58783809D01*
X180752142Y-58807619D01*
X180585476Y-58807619D01*
X180490238Y-58783809D01*
X180442619Y-58736190D01*
X180418809Y-58688571D01*
X180418809Y-58593333D01*
X180442619Y-58545714D01*
X180490238Y-58498095D01*
X180585476Y-58474285D01*
X180752142Y-58474285D01*
X180847380Y-58498095D01*
X180895000Y-58545714D01*
X180918809Y-58593333D01*
X180918809Y-58950476D02*
X180918809Y-59236190D01*
X180418809Y-59093333D02*
X180918809Y-59093333D01*
X180609285Y-59783809D02*
X180609285Y-60164761D01*
X180918809Y-60926666D02*
X180561666Y-60926666D01*
X180490238Y-60902857D01*
X180442619Y-60855238D01*
X180418809Y-60783809D01*
X180418809Y-60736190D01*
X180752142Y-61379047D02*
X180418809Y-61379047D01*
X180752142Y-61164761D02*
X180490238Y-61164761D01*
X180442619Y-61188571D01*
X180418809Y-61236190D01*
X180418809Y-61307619D01*
X180442619Y-61355238D01*
X180466428Y-61379047D01*
X180752142Y-61617142D02*
X180418809Y-61617142D01*
X180704523Y-61617142D02*
X180728333Y-61640952D01*
X180752142Y-61688571D01*
X180752142Y-61760000D01*
X180728333Y-61807619D01*
X180680714Y-61831428D01*
X180418809Y-61831428D01*
X180942619Y-62426666D02*
X180299761Y-61998095D01*
X180871190Y-62569523D02*
X180895000Y-62593333D01*
X180918809Y-62640952D01*
X180918809Y-62760000D01*
X180895000Y-62807619D01*
X180871190Y-62831428D01*
X180823571Y-62855238D01*
X180775952Y-62855238D01*
X180704523Y-62831428D01*
X180418809Y-62545714D01*
X180418809Y-62855238D01*
X180918809Y-63164761D02*
X180918809Y-63212380D01*
X180895000Y-63260000D01*
X180871190Y-63283809D01*
X180823571Y-63307619D01*
X180728333Y-63331428D01*
X180609285Y-63331428D01*
X180514047Y-63307619D01*
X180466428Y-63283809D01*
X180442619Y-63260000D01*
X180418809Y-63212380D01*
X180418809Y-63164761D01*
X180442619Y-63117142D01*
X180466428Y-63093333D01*
X180514047Y-63069523D01*
X180609285Y-63045714D01*
X180728333Y-63045714D01*
X180823571Y-63069523D01*
X180871190Y-63093333D01*
X180895000Y-63117142D01*
X180918809Y-63164761D01*
X180871190Y-63521904D02*
X180895000Y-63545714D01*
X180918809Y-63593333D01*
X180918809Y-63712380D01*
X180895000Y-63760000D01*
X180871190Y-63783809D01*
X180823571Y-63807619D01*
X180775952Y-63807619D01*
X180704523Y-63783809D01*
X180418809Y-63498095D01*
X180418809Y-63807619D01*
X180418809Y-64283809D02*
X180418809Y-63998095D01*
X180418809Y-64140952D02*
X180918809Y-64140952D01*
X180847380Y-64093333D01*
X180799761Y-64045714D01*
X180775952Y-63998095D01*
X147098809Y-57367142D02*
X146694047Y-57367142D01*
X146646428Y-57390952D01*
X146622619Y-57414761D01*
X146598809Y-57462380D01*
X146598809Y-57557619D01*
X146622619Y-57605238D01*
X146646428Y-57629047D01*
X146694047Y-57652857D01*
X147098809Y-57652857D01*
X146622619Y-57867142D02*
X146598809Y-57938571D01*
X146598809Y-58057619D01*
X146622619Y-58105238D01*
X146646428Y-58129047D01*
X146694047Y-58152857D01*
X146741666Y-58152857D01*
X146789285Y-58129047D01*
X146813095Y-58105238D01*
X146836904Y-58057619D01*
X146860714Y-57962380D01*
X146884523Y-57914761D01*
X146908333Y-57890952D01*
X146955952Y-57867142D01*
X147003571Y-57867142D01*
X147051190Y-57890952D01*
X147075000Y-57914761D01*
X147098809Y-57962380D01*
X147098809Y-58081428D01*
X147075000Y-58152857D01*
X146860714Y-58533809D02*
X146836904Y-58605238D01*
X146813095Y-58629047D01*
X146765476Y-58652857D01*
X146694047Y-58652857D01*
X146646428Y-58629047D01*
X146622619Y-58605238D01*
X146598809Y-58557619D01*
X146598809Y-58367142D01*
X147098809Y-58367142D01*
X147098809Y-58533809D01*
X147075000Y-58581428D01*
X147051190Y-58605238D01*
X147003571Y-58629047D01*
X146955952Y-58629047D01*
X146908333Y-58605238D01*
X146884523Y-58581428D01*
X146860714Y-58533809D01*
X146860714Y-58367142D01*
X146789285Y-59248095D02*
X146789285Y-59629047D01*
X146598809Y-60248095D02*
X147098809Y-60248095D01*
X147098809Y-60367142D01*
X147075000Y-60438571D01*
X147027380Y-60486190D01*
X146979761Y-60510000D01*
X146884523Y-60533809D01*
X146813095Y-60533809D01*
X146717857Y-60510000D01*
X146670238Y-60486190D01*
X146622619Y-60438571D01*
X146598809Y-60367142D01*
X146598809Y-60248095D01*
X146860714Y-60914761D02*
X146836904Y-60986190D01*
X146813095Y-61010000D01*
X146765476Y-61033809D01*
X146694047Y-61033809D01*
X146646428Y-61010000D01*
X146622619Y-60986190D01*
X146598809Y-60938571D01*
X146598809Y-60748095D01*
X147098809Y-60748095D01*
X147098809Y-60914761D01*
X147075000Y-60962380D01*
X147051190Y-60986190D01*
X147003571Y-61010000D01*
X146955952Y-61010000D01*
X146908333Y-60986190D01*
X146884523Y-60962380D01*
X146860714Y-60914761D01*
X146860714Y-60748095D01*
X146598809Y-61510000D02*
X146598809Y-61224285D01*
X146598809Y-61367142D02*
X147098809Y-61367142D01*
X147027380Y-61319523D01*
X146979761Y-61271904D01*
X146955952Y-61224285D01*
X147098809Y-61962380D02*
X147098809Y-61724285D01*
X146860714Y-61700476D01*
X146884523Y-61724285D01*
X146908333Y-61771904D01*
X146908333Y-61890952D01*
X146884523Y-61938571D01*
X146860714Y-61962380D01*
X146813095Y-61986190D01*
X146694047Y-61986190D01*
X146646428Y-61962380D01*
X146622619Y-61938571D01*
X146598809Y-61890952D01*
X146598809Y-61771904D01*
X146622619Y-61724285D01*
X146646428Y-61700476D01*
X146741666Y-62557619D02*
X146741666Y-62795714D01*
X146598809Y-62509999D02*
X147098809Y-62676666D01*
X146598809Y-62843333D01*
X146598809Y-63224285D02*
X147098809Y-63224285D01*
X146622619Y-63224285D02*
X146598809Y-63176666D01*
X146598809Y-63081428D01*
X146622619Y-63033809D01*
X146646428Y-63009999D01*
X146694047Y-62986190D01*
X146836904Y-62986190D01*
X146884523Y-63009999D01*
X146908333Y-63033809D01*
X146932142Y-63081428D01*
X146932142Y-63176666D01*
X146908333Y-63224285D01*
X146598809Y-63676666D02*
X146860714Y-63676666D01*
X146908333Y-63652857D01*
X146932142Y-63605238D01*
X146932142Y-63509999D01*
X146908333Y-63462380D01*
X146622619Y-63676666D02*
X146598809Y-63629047D01*
X146598809Y-63509999D01*
X146622619Y-63462380D01*
X146670238Y-63438571D01*
X146717857Y-63438571D01*
X146765476Y-63462380D01*
X146789285Y-63509999D01*
X146789285Y-63629047D01*
X146813095Y-63676666D01*
X146932142Y-63914761D02*
X146432142Y-63914761D01*
X146908333Y-63914761D02*
X146932142Y-63962380D01*
X146932142Y-64057619D01*
X146908333Y-64105238D01*
X146884523Y-64129047D01*
X146836904Y-64152857D01*
X146694047Y-64152857D01*
X146646428Y-64129047D01*
X146622619Y-64105238D01*
X146598809Y-64057619D01*
X146598809Y-63962380D01*
X146622619Y-63914761D01*
X146932142Y-64295714D02*
X146932142Y-64486190D01*
X147098809Y-64367142D02*
X146670238Y-64367142D01*
X146622619Y-64390952D01*
X146598809Y-64438571D01*
X146598809Y-64486190D01*
X146622619Y-64843333D02*
X146598809Y-64795714D01*
X146598809Y-64700476D01*
X146622619Y-64652857D01*
X146670238Y-64629047D01*
X146860714Y-64629047D01*
X146908333Y-64652857D01*
X146932142Y-64700476D01*
X146932142Y-64795714D01*
X146908333Y-64843333D01*
X146860714Y-64867142D01*
X146813095Y-64867142D01*
X146765476Y-64629047D01*
X146598809Y-65081428D02*
X146932142Y-65081428D01*
X146836904Y-65081428D02*
X146884523Y-65105238D01*
X146908333Y-65129047D01*
X146932142Y-65176666D01*
X146932142Y-65224285D01*
X145748809Y-58260000D02*
X146248809Y-58260000D01*
X146248809Y-58593333D02*
X146248809Y-58688571D01*
X146225000Y-58736190D01*
X146177380Y-58783809D01*
X146082142Y-58807619D01*
X145915476Y-58807619D01*
X145820238Y-58783809D01*
X145772619Y-58736190D01*
X145748809Y-58688571D01*
X145748809Y-58593333D01*
X145772619Y-58545714D01*
X145820238Y-58498095D01*
X145915476Y-58474285D01*
X146082142Y-58474285D01*
X146177380Y-58498095D01*
X146225000Y-58545714D01*
X146248809Y-58593333D01*
X146248809Y-58950476D02*
X146248809Y-59236190D01*
X145748809Y-59093333D02*
X146248809Y-59093333D01*
X145939285Y-59783809D02*
X145939285Y-60164761D01*
X146248809Y-60926666D02*
X145891666Y-60926666D01*
X145820238Y-60902857D01*
X145772619Y-60855238D01*
X145748809Y-60783809D01*
X145748809Y-60736190D01*
X146082142Y-61379047D02*
X145748809Y-61379047D01*
X146082142Y-61164761D02*
X145820238Y-61164761D01*
X145772619Y-61188571D01*
X145748809Y-61236190D01*
X145748809Y-61307619D01*
X145772619Y-61355238D01*
X145796428Y-61379047D01*
X146082142Y-61617142D02*
X145748809Y-61617142D01*
X146034523Y-61617142D02*
X146058333Y-61640952D01*
X146082142Y-61688571D01*
X146082142Y-61760000D01*
X146058333Y-61807619D01*
X146010714Y-61831428D01*
X145748809Y-61831428D01*
X146272619Y-62426666D02*
X145629761Y-61998095D01*
X146201190Y-62569523D02*
X146225000Y-62593333D01*
X146248809Y-62640952D01*
X146248809Y-62760000D01*
X146225000Y-62807619D01*
X146201190Y-62831428D01*
X146153571Y-62855238D01*
X146105952Y-62855238D01*
X146034523Y-62831428D01*
X145748809Y-62545714D01*
X145748809Y-62855238D01*
X146248809Y-63164761D02*
X146248809Y-63212380D01*
X146225000Y-63260000D01*
X146201190Y-63283809D01*
X146153571Y-63307619D01*
X146058333Y-63331428D01*
X145939285Y-63331428D01*
X145844047Y-63307619D01*
X145796428Y-63283809D01*
X145772619Y-63260000D01*
X145748809Y-63212380D01*
X145748809Y-63164761D01*
X145772619Y-63117142D01*
X145796428Y-63093333D01*
X145844047Y-63069523D01*
X145939285Y-63045714D01*
X146058333Y-63045714D01*
X146153571Y-63069523D01*
X146201190Y-63093333D01*
X146225000Y-63117142D01*
X146248809Y-63164761D01*
X146201190Y-63521904D02*
X146225000Y-63545714D01*
X146248809Y-63593333D01*
X146248809Y-63712380D01*
X146225000Y-63760000D01*
X146201190Y-63783809D01*
X146153571Y-63807619D01*
X146105952Y-63807619D01*
X146034523Y-63783809D01*
X145748809Y-63498095D01*
X145748809Y-63807619D01*
X145748809Y-64283809D02*
X145748809Y-63998095D01*
X145748809Y-64140952D02*
X146248809Y-64140952D01*
X146177380Y-64093333D01*
X146129761Y-64045714D01*
X146105952Y-63998095D01*
X112678809Y-57387142D02*
X112274047Y-57387142D01*
X112226428Y-57410952D01*
X112202619Y-57434761D01*
X112178809Y-57482380D01*
X112178809Y-57577619D01*
X112202619Y-57625238D01*
X112226428Y-57649047D01*
X112274047Y-57672857D01*
X112678809Y-57672857D01*
X112202619Y-57887142D02*
X112178809Y-57958571D01*
X112178809Y-58077619D01*
X112202619Y-58125238D01*
X112226428Y-58149047D01*
X112274047Y-58172857D01*
X112321666Y-58172857D01*
X112369285Y-58149047D01*
X112393095Y-58125238D01*
X112416904Y-58077619D01*
X112440714Y-57982380D01*
X112464523Y-57934761D01*
X112488333Y-57910952D01*
X112535952Y-57887142D01*
X112583571Y-57887142D01*
X112631190Y-57910952D01*
X112655000Y-57934761D01*
X112678809Y-57982380D01*
X112678809Y-58101428D01*
X112655000Y-58172857D01*
X112440714Y-58553809D02*
X112416904Y-58625238D01*
X112393095Y-58649047D01*
X112345476Y-58672857D01*
X112274047Y-58672857D01*
X112226428Y-58649047D01*
X112202619Y-58625238D01*
X112178809Y-58577619D01*
X112178809Y-58387142D01*
X112678809Y-58387142D01*
X112678809Y-58553809D01*
X112655000Y-58601428D01*
X112631190Y-58625238D01*
X112583571Y-58649047D01*
X112535952Y-58649047D01*
X112488333Y-58625238D01*
X112464523Y-58601428D01*
X112440714Y-58553809D01*
X112440714Y-58387142D01*
X112369285Y-59268095D02*
X112369285Y-59649047D01*
X112178809Y-60268095D02*
X112678809Y-60268095D01*
X112678809Y-60387142D01*
X112655000Y-60458571D01*
X112607380Y-60506190D01*
X112559761Y-60530000D01*
X112464523Y-60553809D01*
X112393095Y-60553809D01*
X112297857Y-60530000D01*
X112250238Y-60506190D01*
X112202619Y-60458571D01*
X112178809Y-60387142D01*
X112178809Y-60268095D01*
X112440714Y-60934761D02*
X112416904Y-61006190D01*
X112393095Y-61030000D01*
X112345476Y-61053809D01*
X112274047Y-61053809D01*
X112226428Y-61030000D01*
X112202619Y-61006190D01*
X112178809Y-60958571D01*
X112178809Y-60768095D01*
X112678809Y-60768095D01*
X112678809Y-60934761D01*
X112655000Y-60982380D01*
X112631190Y-61006190D01*
X112583571Y-61030000D01*
X112535952Y-61030000D01*
X112488333Y-61006190D01*
X112464523Y-60982380D01*
X112440714Y-60934761D01*
X112440714Y-60768095D01*
X112178809Y-61530000D02*
X112178809Y-61244285D01*
X112178809Y-61387142D02*
X112678809Y-61387142D01*
X112607380Y-61339523D01*
X112559761Y-61291904D01*
X112535952Y-61244285D01*
X112678809Y-61982380D02*
X112678809Y-61744285D01*
X112440714Y-61720476D01*
X112464523Y-61744285D01*
X112488333Y-61791904D01*
X112488333Y-61910952D01*
X112464523Y-61958571D01*
X112440714Y-61982380D01*
X112393095Y-62006190D01*
X112274047Y-62006190D01*
X112226428Y-61982380D01*
X112202619Y-61958571D01*
X112178809Y-61910952D01*
X112178809Y-61791904D01*
X112202619Y-61744285D01*
X112226428Y-61720476D01*
X112321666Y-62577619D02*
X112321666Y-62815714D01*
X112178809Y-62530000D02*
X112678809Y-62696666D01*
X112178809Y-62863333D01*
X112178809Y-63244285D02*
X112678809Y-63244285D01*
X112202619Y-63244285D02*
X112178809Y-63196666D01*
X112178809Y-63101428D01*
X112202619Y-63053809D01*
X112226428Y-63030000D01*
X112274047Y-63006190D01*
X112416904Y-63006190D01*
X112464523Y-63030000D01*
X112488333Y-63053809D01*
X112512142Y-63101428D01*
X112512142Y-63196666D01*
X112488333Y-63244285D01*
X112178809Y-63696666D02*
X112440714Y-63696666D01*
X112488333Y-63672857D01*
X112512142Y-63625238D01*
X112512142Y-63530000D01*
X112488333Y-63482380D01*
X112202619Y-63696666D02*
X112178809Y-63649047D01*
X112178809Y-63530000D01*
X112202619Y-63482380D01*
X112250238Y-63458571D01*
X112297857Y-63458571D01*
X112345476Y-63482380D01*
X112369285Y-63530000D01*
X112369285Y-63649047D01*
X112393095Y-63696666D01*
X112512142Y-63934761D02*
X112012142Y-63934761D01*
X112488333Y-63934761D02*
X112512142Y-63982380D01*
X112512142Y-64077619D01*
X112488333Y-64125238D01*
X112464523Y-64149047D01*
X112416904Y-64172857D01*
X112274047Y-64172857D01*
X112226428Y-64149047D01*
X112202619Y-64125238D01*
X112178809Y-64077619D01*
X112178809Y-63982380D01*
X112202619Y-63934761D01*
X112512142Y-64315714D02*
X112512142Y-64506190D01*
X112678809Y-64387142D02*
X112250238Y-64387142D01*
X112202619Y-64410952D01*
X112178809Y-64458571D01*
X112178809Y-64506190D01*
X112202619Y-64863333D02*
X112178809Y-64815714D01*
X112178809Y-64720476D01*
X112202619Y-64672857D01*
X112250238Y-64649047D01*
X112440714Y-64649047D01*
X112488333Y-64672857D01*
X112512142Y-64720476D01*
X112512142Y-64815714D01*
X112488333Y-64863333D01*
X112440714Y-64887142D01*
X112393095Y-64887142D01*
X112345476Y-64649047D01*
X112178809Y-65101428D02*
X112512142Y-65101428D01*
X112416904Y-65101428D02*
X112464523Y-65125238D01*
X112488333Y-65149047D01*
X112512142Y-65196666D01*
X112512142Y-65244285D01*
X111328809Y-58280000D02*
X111828809Y-58280000D01*
X111828809Y-58613333D02*
X111828809Y-58708571D01*
X111805000Y-58756190D01*
X111757380Y-58803809D01*
X111662142Y-58827619D01*
X111495476Y-58827619D01*
X111400238Y-58803809D01*
X111352619Y-58756190D01*
X111328809Y-58708571D01*
X111328809Y-58613333D01*
X111352619Y-58565714D01*
X111400238Y-58518095D01*
X111495476Y-58494285D01*
X111662142Y-58494285D01*
X111757380Y-58518095D01*
X111805000Y-58565714D01*
X111828809Y-58613333D01*
X111828809Y-58970476D02*
X111828809Y-59256190D01*
X111328809Y-59113333D02*
X111828809Y-59113333D01*
X111519285Y-59803809D02*
X111519285Y-60184761D01*
X111828809Y-60946666D02*
X111471666Y-60946666D01*
X111400238Y-60922857D01*
X111352619Y-60875238D01*
X111328809Y-60803809D01*
X111328809Y-60756190D01*
X111662142Y-61399047D02*
X111328809Y-61399047D01*
X111662142Y-61184761D02*
X111400238Y-61184761D01*
X111352619Y-61208571D01*
X111328809Y-61256190D01*
X111328809Y-61327619D01*
X111352619Y-61375238D01*
X111376428Y-61399047D01*
X111662142Y-61637142D02*
X111328809Y-61637142D01*
X111614523Y-61637142D02*
X111638333Y-61660952D01*
X111662142Y-61708571D01*
X111662142Y-61780000D01*
X111638333Y-61827619D01*
X111590714Y-61851428D01*
X111328809Y-61851428D01*
X111852619Y-62446666D02*
X111209761Y-62018095D01*
X111781190Y-62589523D02*
X111805000Y-62613333D01*
X111828809Y-62660952D01*
X111828809Y-62780000D01*
X111805000Y-62827619D01*
X111781190Y-62851428D01*
X111733571Y-62875238D01*
X111685952Y-62875238D01*
X111614523Y-62851428D01*
X111328809Y-62565714D01*
X111328809Y-62875238D01*
X111828809Y-63184761D02*
X111828809Y-63232380D01*
X111805000Y-63280000D01*
X111781190Y-63303809D01*
X111733571Y-63327619D01*
X111638333Y-63351428D01*
X111519285Y-63351428D01*
X111424047Y-63327619D01*
X111376428Y-63303809D01*
X111352619Y-63280000D01*
X111328809Y-63232380D01*
X111328809Y-63184761D01*
X111352619Y-63137142D01*
X111376428Y-63113333D01*
X111424047Y-63089523D01*
X111519285Y-63065714D01*
X111638333Y-63065714D01*
X111733571Y-63089523D01*
X111781190Y-63113333D01*
X111805000Y-63137142D01*
X111828809Y-63184761D01*
X111781190Y-63541904D02*
X111805000Y-63565714D01*
X111828809Y-63613333D01*
X111828809Y-63732380D01*
X111805000Y-63780000D01*
X111781190Y-63803809D01*
X111733571Y-63827619D01*
X111685952Y-63827619D01*
X111614523Y-63803809D01*
X111328809Y-63518095D01*
X111328809Y-63827619D01*
X111328809Y-64303809D02*
X111328809Y-64018095D01*
X111328809Y-64160952D02*
X111828809Y-64160952D01*
X111757380Y-64113333D01*
X111709761Y-64065714D01*
X111685952Y-64018095D01*
D11*
X166395000Y-60745000D02*
X166395000Y-60045000D01*
X166395000Y-60045000D02*
X154395000Y-60045000D01*
X154395000Y-60045000D02*
X154395000Y-60745000D01*
D12*
X157495000Y-66845000D02*
G75*
G03*
X157495000Y-66845000I-100000J0D01*
G01*
D13*
X151775000Y-98580000D02*
X151775000Y-94480000D01*
X151775000Y-94480000D02*
X154480000Y-94480000D01*
X154480000Y-94480000D02*
X154480000Y-83100000D01*
X154480000Y-83100000D02*
X166905000Y-83100000D01*
X166905000Y-83100000D02*
X166905000Y-94480000D01*
X166905000Y-94480000D02*
X168995000Y-94480000D01*
X168995000Y-94480000D02*
X168995000Y-98580000D01*
X164450000Y-82405662D02*
X164950000Y-82405662D01*
X164950000Y-82405662D02*
X164700000Y-82838675D01*
X164700000Y-82838675D02*
X164450000Y-82405662D01*
X164450000Y-75045662D02*
X164950000Y-75045662D01*
X168995000Y-87120000D02*
X168995000Y-91220000D01*
X154480000Y-75740000D02*
X166905000Y-75740000D01*
X151775000Y-91220000D02*
X151775000Y-87120000D01*
X166905000Y-87120000D02*
X168995000Y-87120000D01*
X151775000Y-87120000D02*
X154480000Y-87120000D01*
X166905000Y-75740000D02*
X166905000Y-87120000D01*
X164950000Y-75045662D02*
X164700000Y-75478675D01*
X154480000Y-87120000D02*
X154480000Y-75740000D01*
X164700000Y-75478675D02*
X164450000Y-75045662D01*
D12*
X184545000Y-115075000D02*
G75*
G03*
X184545000Y-115075000I-100000J0D01*
G01*
D11*
X191245000Y-112075000D02*
X190545000Y-112075000D01*
X191245000Y-124075000D02*
X191245000Y-112075000D01*
X190545000Y-124075000D02*
X191245000Y-124075000D01*
D13*
X175811325Y-122380000D02*
X176244338Y-122130000D01*
X164170000Y-112160000D02*
X175550000Y-112160000D01*
X176244338Y-122630000D02*
X175811325Y-122380000D01*
X175550000Y-124585000D02*
X164170000Y-124585000D01*
X164170000Y-109455000D02*
X164170000Y-112160000D01*
X164170000Y-124585000D02*
X164170000Y-126675000D01*
X160070000Y-109455000D02*
X164170000Y-109455000D01*
X175550000Y-112160000D02*
X175550000Y-124585000D01*
X164170000Y-126675000D02*
X160070000Y-126675000D01*
X176244338Y-122130000D02*
X176244338Y-122630000D01*
X168451325Y-122380000D02*
X168884338Y-122130000D01*
X168884338Y-122630000D02*
X168451325Y-122380000D01*
X168884338Y-122130000D02*
X168884338Y-122630000D01*
X156810000Y-126675000D02*
X152710000Y-126675000D01*
X156810000Y-124585000D02*
X156810000Y-126675000D01*
X168190000Y-124585000D02*
X156810000Y-124585000D01*
X168190000Y-112160000D02*
X168190000Y-124585000D01*
X156810000Y-112160000D02*
X168190000Y-112160000D01*
X156810000Y-109455000D02*
X156810000Y-112160000D01*
X152710000Y-109455000D02*
X156810000Y-109455000D01*
D11*
X200845000Y-60745000D02*
X200845000Y-60045000D01*
X200845000Y-60045000D02*
X188845000Y-60045000D01*
X188845000Y-60045000D02*
X188845000Y-60745000D01*
D12*
X191945000Y-66845000D02*
G75*
G03*
X191945000Y-66845000I-100000J0D01*
G01*
D13*
X186225000Y-98580000D02*
X186225000Y-94480000D01*
X186225000Y-94480000D02*
X188930000Y-94480000D01*
X188930000Y-94480000D02*
X188930000Y-83100000D01*
X188930000Y-83100000D02*
X201355000Y-83100000D01*
X201355000Y-83100000D02*
X201355000Y-94480000D01*
X201355000Y-94480000D02*
X203445000Y-94480000D01*
X203445000Y-94480000D02*
X203445000Y-98580000D01*
X198900000Y-82405662D02*
X199400000Y-82405662D01*
X199400000Y-82405662D02*
X199150000Y-82838675D01*
X199150000Y-82838675D02*
X198900000Y-82405662D01*
X198900000Y-75045662D02*
X199400000Y-75045662D01*
X203445000Y-87120000D02*
X203445000Y-91220000D01*
X188930000Y-75740000D02*
X201355000Y-75740000D01*
X186225000Y-91220000D02*
X186225000Y-87120000D01*
X201355000Y-87120000D02*
X203445000Y-87120000D01*
X186225000Y-87120000D02*
X188930000Y-87120000D01*
X201355000Y-75740000D02*
X201355000Y-87120000D01*
X199400000Y-75045662D02*
X199150000Y-75478675D01*
X188930000Y-87120000D02*
X188930000Y-75740000D01*
X199150000Y-75478675D02*
X198900000Y-75045662D01*
D12*
X122795000Y-66845000D02*
G75*
G03*
X122795000Y-66845000I-100000J0D01*
G01*
D11*
X119695000Y-60045000D02*
X119695000Y-60745000D01*
X131695000Y-60045000D02*
X119695000Y-60045000D01*
X131695000Y-60745000D02*
X131695000Y-60045000D01*
D13*
X130000000Y-75478675D02*
X129750000Y-75045662D01*
X119780000Y-87120000D02*
X119780000Y-75740000D01*
X130250000Y-75045662D02*
X130000000Y-75478675D01*
X132205000Y-75740000D02*
X132205000Y-87120000D01*
X117075000Y-87120000D02*
X119780000Y-87120000D01*
X132205000Y-87120000D02*
X134295000Y-87120000D01*
X117075000Y-91220000D02*
X117075000Y-87120000D01*
X119780000Y-75740000D02*
X132205000Y-75740000D01*
X134295000Y-87120000D02*
X134295000Y-91220000D01*
X129750000Y-75045662D02*
X130250000Y-75045662D01*
X130000000Y-82838675D02*
X129750000Y-82405662D01*
X130250000Y-82405662D02*
X130000000Y-82838675D01*
X129750000Y-82405662D02*
X130250000Y-82405662D01*
X134295000Y-94480000D02*
X134295000Y-98580000D01*
X132205000Y-94480000D02*
X134295000Y-94480000D01*
X132205000Y-83100000D02*
X132205000Y-94480000D01*
X119780000Y-83100000D02*
X132205000Y-83100000D01*
X119780000Y-94480000D02*
X119780000Y-83100000D01*
X117075000Y-94480000D02*
X119780000Y-94480000D01*
X117075000Y-98580000D02*
X117075000Y-94480000D01*
D14*
X160056666Y-68002380D02*
X160056666Y-68716666D01*
X160009047Y-68859523D01*
X159913809Y-68954761D01*
X159770952Y-69002380D01*
X159675714Y-69002380D01*
X160485238Y-68097619D02*
X160532857Y-68050000D01*
X160628095Y-68002380D01*
X160866190Y-68002380D01*
X160961428Y-68050000D01*
X161009047Y-68097619D01*
X161056666Y-68192857D01*
X161056666Y-68288095D01*
X161009047Y-68430952D01*
X160437619Y-69002380D01*
X161056666Y-69002380D01*
X156006666Y-73682380D02*
X156006666Y-74396666D01*
X155959047Y-74539523D01*
X155863809Y-74634761D01*
X155720952Y-74682380D01*
X155625714Y-74682380D01*
X157006666Y-74682380D02*
X156435238Y-74682380D01*
X156720952Y-74682380D02*
X156720952Y-73682380D01*
X156625714Y-73825238D01*
X156530476Y-73920476D01*
X156435238Y-73968095D01*
X182192380Y-118403333D02*
X182906666Y-118403333D01*
X183049523Y-118450952D01*
X183144761Y-118546190D01*
X183192380Y-118689047D01*
X183192380Y-118784285D01*
X182287619Y-117974761D02*
X182240000Y-117927142D01*
X182192380Y-117831904D01*
X182192380Y-117593809D01*
X182240000Y-117498571D01*
X182287619Y-117450952D01*
X182382857Y-117403333D01*
X182478095Y-117403333D01*
X182620952Y-117450952D01*
X183192380Y-118022380D01*
X183192380Y-117403333D01*
X176512380Y-114353333D02*
X177226666Y-114353333D01*
X177369523Y-114400952D01*
X177464761Y-114496190D01*
X177512380Y-114639047D01*
X177512380Y-114734285D01*
X177512380Y-113353333D02*
X177512380Y-113924761D01*
X177512380Y-113639047D02*
X176512380Y-113639047D01*
X176655238Y-113734285D01*
X176750476Y-113829523D01*
X176798095Y-113924761D01*
X194506666Y-68002380D02*
X194506666Y-68716666D01*
X194459047Y-68859523D01*
X194363809Y-68954761D01*
X194220952Y-69002380D01*
X194125714Y-69002380D01*
X194935238Y-68097619D02*
X194982857Y-68050000D01*
X195078095Y-68002380D01*
X195316190Y-68002380D01*
X195411428Y-68050000D01*
X195459047Y-68097619D01*
X195506666Y-68192857D01*
X195506666Y-68288095D01*
X195459047Y-68430952D01*
X194887619Y-69002380D01*
X195506666Y-69002380D01*
X190456666Y-73682380D02*
X190456666Y-74396666D01*
X190409047Y-74539523D01*
X190313809Y-74634761D01*
X190170952Y-74682380D01*
X190075714Y-74682380D01*
X191456666Y-74682380D02*
X190885238Y-74682380D01*
X191170952Y-74682380D02*
X191170952Y-73682380D01*
X191075714Y-73825238D01*
X190980476Y-73920476D01*
X190885238Y-73968095D01*
X125356666Y-68002380D02*
X125356666Y-68716666D01*
X125309047Y-68859523D01*
X125213809Y-68954761D01*
X125070952Y-69002380D01*
X124975714Y-69002380D01*
X125785238Y-68097619D02*
X125832857Y-68050000D01*
X125928095Y-68002380D01*
X126166190Y-68002380D01*
X126261428Y-68050000D01*
X126309047Y-68097619D01*
X126356666Y-68192857D01*
X126356666Y-68288095D01*
X126309047Y-68430952D01*
X125737619Y-69002380D01*
X126356666Y-69002380D01*
X121306666Y-73682380D02*
X121306666Y-74396666D01*
X121259047Y-74539523D01*
X121163809Y-74634761D01*
X121020952Y-74682380D01*
X120925714Y-74682380D01*
X122306666Y-74682380D02*
X121735238Y-74682380D01*
X122020952Y-74682380D02*
X122020952Y-73682380D01*
X121925714Y-73825238D01*
X121830476Y-73920476D01*
X121735238Y-73968095D01*
M02*
