M48
; DRILL file {KiCad 5.1.9-73d0e3b20d~88~ubuntu20.04.1} date Wed Jun  9 12:04:25 2021
; FORMAT={-:-/ absolute / inch / decimal}
; #@! TF.CreationDate,2021-06-09T12:04:25-03:00
; #@! TF.GenerationSoftware,Kicad,Pcbnew,5.1.9-73d0e3b20d~88~ubuntu20.04.1
; #@! TF.FileFunction,Plated,1,2,PTH
FMAT,2
INCH
T1C0.0236
T2C0.0394
T3C0.1181
T4C0.1201
%
G90
G05
T1
X4.8672Y-2.6989
X5.0395Y-2.9011
X5.16Y-2.6741
X5.1865Y-2.8612
X5.1939Y-2.7844
X5.323Y-2.8363
X6.2334Y-2.6989
X6.4056Y-2.9011
X6.5261Y-2.6741
X6.5527Y-2.8612
X6.56Y-2.7844
X6.6892Y-2.8363
X6.9922Y-4.7395
X7.0321Y-4.8865
X7.057Y-5.023
X7.109Y-4.8939
X7.1944Y-4.5672
X7.2193Y-4.86
X7.5897Y-2.6989
X7.7619Y-2.9011
X7.8824Y-2.6741
X7.909Y-2.8612
X7.9163Y-2.7844
X8.0455Y-2.8363
T2
X4.7575Y-3.0236
X4.7575Y-3.2236
X4.7575Y-3.3134
X4.7575Y-3.5134
X4.8026Y-3.1236
X4.8026Y-3.4134
X4.8476Y-3.0236
X4.8476Y-3.2236
X4.8476Y-3.3134
X4.8476Y-3.5134
X4.86Y-2.4703
X4.8927Y-3.1236
X4.8927Y-3.4134
X4.9378Y-3.0236
X4.9378Y-3.2236
X4.9378Y-3.3134
X4.9378Y-3.5134
X4.9829Y-3.1236
X4.9829Y-3.4134
X5.028Y-3.0236
X5.028Y-3.2236
X5.028Y-3.3134
X5.028Y-3.5134
X5.0372Y-2.4703
X5.073Y-3.1236
X5.073Y-3.4134
X5.1181Y-3.0236
X5.1181Y-3.2236
X5.1181Y-3.3134
X5.1181Y-3.5134
X5.1632Y-3.1236
X5.1632Y-3.4134
X6.1236Y-3.0236
X6.1236Y-3.2236
X6.1236Y-3.3134
X6.1236Y-3.5134
X6.1687Y-3.1236
X6.1687Y-3.4134
X6.2138Y-3.0236
X6.2138Y-3.2236
X6.2138Y-3.3134
X6.2138Y-3.5134
X6.2262Y-2.4703
X6.2589Y-3.1236
X6.2589Y-3.4134
X6.3039Y-3.0236
X6.3039Y-3.2236
X6.3039Y-3.3134
X6.3039Y-3.5134
X6.349Y-3.1236
X6.349Y-3.4134
X6.3799Y-4.4575
X6.3799Y-4.5476
X6.3799Y-4.6378
X6.3799Y-4.728
X6.3799Y-4.8181
X6.3941Y-3.0236
X6.3941Y-3.2236
X6.3941Y-3.3134
X6.3941Y-3.5134
X6.4033Y-2.4703
X6.4392Y-3.1236
X6.4392Y-3.4134
X6.4799Y-4.5026
X6.4799Y-4.5927
X6.4799Y-4.6829
X6.4799Y-4.773
X6.4799Y-4.8632
X6.4843Y-3.0236
X6.4843Y-3.2236
X6.4843Y-3.3134
X6.4843Y-3.5134
X6.5293Y-3.1236
X6.5293Y-3.4134
X6.5799Y-4.4575
X6.5799Y-4.5476
X6.5799Y-4.6378
X6.5799Y-4.728
X6.5799Y-4.8181
X6.6697Y-4.4575
X6.6697Y-4.5476
X6.6697Y-4.6378
X6.6697Y-4.728
X6.6697Y-4.8181
X6.7697Y-4.5026
X6.7697Y-4.5927
X6.7697Y-4.6829
X6.7697Y-4.773
X6.7697Y-4.8632
X6.8697Y-4.4575
X6.8697Y-4.5476
X6.8697Y-4.6378
X6.8697Y-4.728
X6.8697Y-4.8181
X7.423Y-4.56
X7.423Y-4.7372
X7.4799Y-3.0236
X7.4799Y-3.2236
X7.4799Y-3.3134
X7.4799Y-3.5134
X7.525Y-3.1236
X7.525Y-3.4134
X7.5701Y-3.0236
X7.5701Y-3.2236
X7.5701Y-3.3134
X7.5701Y-3.5134
X7.5825Y-2.4703
X7.6152Y-3.1236
X7.6152Y-3.4134
X7.6602Y-3.0236
X7.6602Y-3.2236
X7.6602Y-3.3134
X7.6602Y-3.5134
X7.7053Y-3.1236
X7.7053Y-3.4134
X7.7504Y-3.0236
X7.7504Y-3.2236
X7.7504Y-3.3134
X7.7504Y-3.5134
X7.7596Y-2.4703
X7.7955Y-3.1236
X7.7955Y-3.4134
X7.8406Y-3.0236
X7.8406Y-3.2236
X7.8406Y-3.3134
X7.8406Y-3.5134
X7.8856Y-3.1236
X7.8856Y-3.4134
T3
X4.4803Y-1.7638
X5.4146Y-1.7638
X5.8465Y-1.7638
X6.7807Y-1.7638
X7.2028Y-1.7638
X8.1295Y-4.1803
X8.1295Y-5.1146
X8.137Y-1.7638
T4
X4.4571Y-3.1681
X4.4571Y-3.5146
X5.4409Y-3.5146
X5.4413Y-3.1685
X5.8232Y-3.1681
X5.8232Y-3.5146
X6.3787Y-4.1571
X6.3787Y-5.1409
X6.7248Y-5.1413
X6.7252Y-4.1571
X6.8071Y-3.5146
X6.8075Y-3.1685
X7.1795Y-3.1681
X7.1795Y-3.5146
X8.1634Y-3.5146
X8.1638Y-3.1685
T2
G00X4.7183Y-2.5018
M15
G01X4.7183Y-2.4388
M16
G05
G00X4.7183Y-2.4388
M15
G01X4.7183Y-2.5018
M16
G05
G00X5.1789Y-2.5018
M15
G01X5.1789Y-2.4388
M16
G05
G00X5.1789Y-2.4388
M15
G01X5.1789Y-2.5018
M16
G05
G00X6.0844Y-2.5018
M15
G01X6.0844Y-2.4388
M16
G05
G00X6.0844Y-2.4388
M15
G01X6.0844Y-2.5018
M16
G05
G00X6.5451Y-2.4388
M15
G01X6.5451Y-2.5018
M16
G05
G00X6.5451Y-2.5018
M15
G01X6.5451Y-2.4388
M16
G05
G00X7.4545Y-4.4183
M15
G01X7.3915Y-4.4183
M16
G05
G00X7.3915Y-4.4183
M15
G01X7.4545Y-4.4183
M16
G05
G00X7.4545Y-4.8789
M15
G01X7.3915Y-4.8789
M16
G05
G00X7.3915Y-4.8789
M15
G01X7.4545Y-4.8789
M16
G05
G00X7.4407Y-2.4388
M15
G01X7.4407Y-2.5018
M16
G05
G00X7.4407Y-2.5018
M15
G01X7.4407Y-2.4388
M16
G05
G00X7.9014Y-2.4388
M15
G01X7.9014Y-2.5018
M16
G05
G00X7.9014Y-2.5018
M15
G01X7.9014Y-2.4388
M16
G05
T0
M30
