G04 #@! TF.GenerationSoftware,KiCad,Pcbnew,5.1.9-73d0e3b20d~88~ubuntu20.04.1*
G04 #@! TF.CreationDate,2021-06-09T12:04:27-03:00*
G04 #@! TF.ProjectId,adaptador_db15_usb,61646170-7461-4646-9f72-5f646231355f,rev?*
G04 #@! TF.SameCoordinates,Original*
G04 #@! TF.FileFunction,Other,User*
%FSLAX46Y46*%
G04 Gerber Fmt 4.6, Leading zero omitted, Abs format (unit mm)*
G04 Created by KiCad (PCBNEW 5.1.9-73d0e3b20d~88~ubuntu20.04.1) date 2021-06-09 12:04:27*
%MOMM*%
%LPD*%
G01*
G04 APERTURE LIST*
%ADD10C,0.050000*%
G04 APERTURE END LIST*
D10*
X167295000Y-64595000D02*
X164995000Y-64595000D01*
X164995000Y-64595000D02*
X164995000Y-66345000D01*
X164995000Y-66345000D02*
X155795000Y-66345000D01*
X155795000Y-66345000D02*
X155795000Y-64595000D01*
X155795000Y-64595000D02*
X153495000Y-64595000D01*
X153495000Y-64595000D02*
X153495000Y-60895000D01*
X153495000Y-60895000D02*
X154145000Y-60895000D01*
X154145000Y-60895000D02*
X154145000Y-44745000D01*
X154145000Y-44745000D02*
X166645000Y-44745000D01*
X166645000Y-44745000D02*
X166645000Y-60895000D01*
X166645000Y-60895000D02*
X167295000Y-60895000D01*
X167295000Y-60895000D02*
X167295000Y-64595000D01*
X151700000Y-105710000D02*
X151700000Y-99560000D01*
X151700000Y-99560000D02*
X144450000Y-99560000D01*
X144450000Y-99560000D02*
X144450000Y-98160000D01*
X144450000Y-98160000D02*
X151300000Y-98160000D01*
X151300000Y-98160000D02*
X151300000Y-94060000D01*
X151300000Y-94060000D02*
X154200000Y-94060000D01*
X154200000Y-94060000D02*
X154200000Y-82810000D01*
X154200000Y-82810000D02*
X167150000Y-82810000D01*
X167150000Y-82810000D02*
X167150000Y-94060000D01*
X167150000Y-94060000D02*
X169450000Y-94060000D01*
X169450000Y-94060000D02*
X169450000Y-98160000D01*
X169450000Y-98160000D02*
X176350000Y-98160000D01*
X176350000Y-98160000D02*
X176350000Y-99560000D01*
X176350000Y-99560000D02*
X169050000Y-99560000D01*
X169050000Y-99560000D02*
X169050000Y-105710000D01*
X169050000Y-105710000D02*
X151700000Y-105710000D01*
X154200000Y-86700000D02*
X154200000Y-75450000D01*
X151300000Y-90800000D02*
X151300000Y-86700000D01*
X167150000Y-86700000D02*
X169450000Y-86700000D01*
X154200000Y-75450000D02*
X167150000Y-75450000D01*
X167150000Y-75450000D02*
X167150000Y-86700000D01*
X169450000Y-86700000D02*
X169450000Y-90800000D01*
X169050000Y-98350000D02*
X151700000Y-98350000D01*
X151300000Y-86700000D02*
X154200000Y-86700000D01*
X190395000Y-124975000D02*
X186695000Y-124975000D01*
X190395000Y-124325000D02*
X190395000Y-124975000D01*
X206545000Y-124325000D02*
X190395000Y-124325000D01*
X206545000Y-111825000D02*
X206545000Y-124325000D01*
X190395000Y-111825000D02*
X206545000Y-111825000D01*
X190395000Y-111175000D02*
X190395000Y-111825000D01*
X186695000Y-111175000D02*
X190395000Y-111175000D01*
X186695000Y-113475000D02*
X186695000Y-111175000D01*
X184945000Y-113475000D02*
X186695000Y-113475000D01*
X184945000Y-122675000D02*
X184945000Y-113475000D01*
X186695000Y-122675000D02*
X184945000Y-122675000D01*
X186695000Y-124975000D02*
X186695000Y-122675000D01*
X164590000Y-108980000D02*
X164590000Y-111880000D01*
X152940000Y-126730000D02*
X152940000Y-109380000D01*
X164590000Y-127130000D02*
X160490000Y-127130000D01*
X175840000Y-124830000D02*
X164590000Y-124830000D01*
X175840000Y-111880000D02*
X175840000Y-124830000D01*
X164590000Y-124830000D02*
X164590000Y-127130000D01*
X160490000Y-108980000D02*
X164590000Y-108980000D01*
X164590000Y-111880000D02*
X175840000Y-111880000D01*
X145580000Y-126730000D02*
X145580000Y-109380000D01*
X151730000Y-126730000D02*
X145580000Y-126730000D01*
X151730000Y-134030000D02*
X151730000Y-126730000D01*
X153130000Y-134030000D02*
X151730000Y-134030000D01*
X153130000Y-127130000D02*
X153130000Y-134030000D01*
X157230000Y-127130000D02*
X153130000Y-127130000D01*
X157230000Y-124830000D02*
X157230000Y-127130000D01*
X168480000Y-124830000D02*
X157230000Y-124830000D01*
X168480000Y-111880000D02*
X168480000Y-124830000D01*
X157230000Y-111880000D02*
X168480000Y-111880000D01*
X157230000Y-108980000D02*
X157230000Y-111880000D01*
X153130000Y-108980000D02*
X157230000Y-108980000D01*
X153130000Y-102130000D02*
X153130000Y-108980000D01*
X151730000Y-102130000D02*
X153130000Y-102130000D01*
X151730000Y-109380000D02*
X151730000Y-102130000D01*
X145580000Y-109380000D02*
X151730000Y-109380000D01*
X201745000Y-64595000D02*
X199445000Y-64595000D01*
X199445000Y-64595000D02*
X199445000Y-66345000D01*
X199445000Y-66345000D02*
X190245000Y-66345000D01*
X190245000Y-66345000D02*
X190245000Y-64595000D01*
X190245000Y-64595000D02*
X187945000Y-64595000D01*
X187945000Y-64595000D02*
X187945000Y-60895000D01*
X187945000Y-60895000D02*
X188595000Y-60895000D01*
X188595000Y-60895000D02*
X188595000Y-44745000D01*
X188595000Y-44745000D02*
X201095000Y-44745000D01*
X201095000Y-44745000D02*
X201095000Y-60895000D01*
X201095000Y-60895000D02*
X201745000Y-60895000D01*
X201745000Y-60895000D02*
X201745000Y-64595000D01*
X186150000Y-105710000D02*
X186150000Y-99560000D01*
X186150000Y-99560000D02*
X178900000Y-99560000D01*
X178900000Y-99560000D02*
X178900000Y-98160000D01*
X178900000Y-98160000D02*
X185750000Y-98160000D01*
X185750000Y-98160000D02*
X185750000Y-94060000D01*
X185750000Y-94060000D02*
X188650000Y-94060000D01*
X188650000Y-94060000D02*
X188650000Y-82810000D01*
X188650000Y-82810000D02*
X201600000Y-82810000D01*
X201600000Y-82810000D02*
X201600000Y-94060000D01*
X201600000Y-94060000D02*
X203900000Y-94060000D01*
X203900000Y-94060000D02*
X203900000Y-98160000D01*
X203900000Y-98160000D02*
X210800000Y-98160000D01*
X210800000Y-98160000D02*
X210800000Y-99560000D01*
X210800000Y-99560000D02*
X203500000Y-99560000D01*
X203500000Y-99560000D02*
X203500000Y-105710000D01*
X203500000Y-105710000D02*
X186150000Y-105710000D01*
X188650000Y-86700000D02*
X188650000Y-75450000D01*
X185750000Y-90800000D02*
X185750000Y-86700000D01*
X201600000Y-86700000D02*
X203900000Y-86700000D01*
X188650000Y-75450000D02*
X201600000Y-75450000D01*
X201600000Y-75450000D02*
X201600000Y-86700000D01*
X203900000Y-86700000D02*
X203900000Y-90800000D01*
X203500000Y-98350000D02*
X186150000Y-98350000D01*
X185750000Y-86700000D02*
X188650000Y-86700000D01*
X132595000Y-60895000D02*
X132595000Y-64595000D01*
X131945000Y-60895000D02*
X132595000Y-60895000D01*
X131945000Y-44745000D02*
X131945000Y-60895000D01*
X119445000Y-44745000D02*
X131945000Y-44745000D01*
X119445000Y-60895000D02*
X119445000Y-44745000D01*
X118795000Y-60895000D02*
X119445000Y-60895000D01*
X118795000Y-64595000D02*
X118795000Y-60895000D01*
X121095000Y-64595000D02*
X118795000Y-64595000D01*
X121095000Y-66345000D02*
X121095000Y-64595000D01*
X130295000Y-66345000D02*
X121095000Y-66345000D01*
X130295000Y-64595000D02*
X130295000Y-66345000D01*
X132595000Y-64595000D02*
X130295000Y-64595000D01*
X116600000Y-86700000D02*
X119500000Y-86700000D01*
X134350000Y-98350000D02*
X117000000Y-98350000D01*
X134750000Y-86700000D02*
X134750000Y-90800000D01*
X132450000Y-75450000D02*
X132450000Y-86700000D01*
X119500000Y-75450000D02*
X132450000Y-75450000D01*
X132450000Y-86700000D02*
X134750000Y-86700000D01*
X116600000Y-90800000D02*
X116600000Y-86700000D01*
X119500000Y-86700000D02*
X119500000Y-75450000D01*
X134350000Y-105710000D02*
X117000000Y-105710000D01*
X134350000Y-99560000D02*
X134350000Y-105710000D01*
X141650000Y-99560000D02*
X134350000Y-99560000D01*
X141650000Y-98160000D02*
X141650000Y-99560000D01*
X134750000Y-98160000D02*
X141650000Y-98160000D01*
X134750000Y-94060000D02*
X134750000Y-98160000D01*
X132450000Y-94060000D02*
X134750000Y-94060000D01*
X132450000Y-82810000D02*
X132450000Y-94060000D01*
X119500000Y-82810000D02*
X132450000Y-82810000D01*
X119500000Y-94060000D02*
X119500000Y-82810000D01*
X116600000Y-94060000D02*
X119500000Y-94060000D01*
X116600000Y-98160000D02*
X116600000Y-94060000D01*
X109750000Y-98160000D02*
X116600000Y-98160000D01*
X109750000Y-99560000D02*
X109750000Y-98160000D01*
X117000000Y-99560000D02*
X109750000Y-99560000D01*
X117000000Y-105710000D02*
X117000000Y-99560000D01*
M02*
